<svg id="Group_271" data-name="Group 271" xmlns="http://www.w3.org/2000/svg" width="22.085" height="17.886" viewBox="0 0 22.085 17.886">
  <path id="Path_1736" data-name="Path 1736" d="M7535.411,363.166,7533.485,366l-2.342,3.447a.89.89,0,0,0-.133.214,1.361,1.361,0,0,0-.027.28c.072,0,.16.026.215-.017a2.842,2.842,0,0,0,.334-.34l4.824-5.317c.053-.059.111-.111.17-.169.438.362.862.741,1.307,1.07a1.891,1.891,0,0,0,2.445-.008c.438-.324.854-.7,1.3-1.067.379.416.763.836,1.146,1.257,1.317,1.453,2.632,2.909,3.955,4.353a1.506,1.506,0,0,0,.426.245,2.513,2.513,0,0,0-.2-.544q-2.016-2.99-4.047-5.963c-.059-.086-.114-.173-.181-.274.053-.057.1-.111.144-.155q3.116-2.761,6.231-5.519a5.125,5.125,0,0,1,.609-.485c.258-.166.359-.074.36.3q0,1.715,0,3.431c0,3.535-.021,7.069.014,10.6.009.866-.7,1.717-1.315,1.714-6.454-.026-12.908-.018-19.362-.012a1.419,1.419,0,0,1-1.258-.921,1.5,1.5,0,0,1-.143-.648q-.013-7.017-.006-14.034c0-.534.168-.661.531-.357.722.6,1.43,1.236,2.141,1.861q2.3,2.018,4.595,4.041C7535.286,363.04,7535.34,363.1,7535.411,363.166Z" transform="translate(-7527.961 -355.173)"/>
  <path id="Path_1737" data-name="Path 1737" d="M7544.136,333.477h9.88a2.265,2.265,0,0,1,.42.019c.392.074.516.488.262.926a1.679,1.679,0,0,1-.429.479c-3.011,2.333-6.019,4.673-9.042,6.975a1.715,1.715,0,0,1-2.246-.037q-4.458-3.419-8.9-6.872a2.079,2.079,0,0,1-.5-.523c-.27-.431-.141-.875.26-.949a2.3,2.3,0,0,1,.419-.018Z" transform="translate(-7533.025 -333.476)"/>
</svg>
