<svg xmlns="http://www.w3.org/2000/svg" width="27.944" height="29.367" viewBox="0 0 27.944 29.367">
  <g id="flip" transform="translate(0)" opacity="0.18">
    <path id="Path_135" data-name="Path 135" d="M9372.847,3396.573c-2.758,0-5.517.016-8.276-.005a5.143,5.143,0,0,1-4.891-3.065,3.962,3.962,0,0,1-.415-1.5c-.093-1.416-.044-2.834-.033-4.251a1.4,1.4,0,0,1,.982-1.364,1.463,1.463,0,0,1,1.9,1.448q-.01,1.7,0,3.41a2.322,2.322,0,0,0,2.291,2.416c.166.01.331.008.5.008h16.59c.076,0,.154,0,.23,0,.1-.008.221.035.276-.079s-.071-.178-.137-.244c-.521-.524-1.042-1.05-1.575-1.563a1.423,1.423,0,0,1-.4-1.508,1.371,1.371,0,0,1,1.188-1,1.468,1.468,0,0,1,1.311.476l3.464,3.458c.289.288.584.571.866.865a1.464,1.464,0,0,1,.009,2.069q-2.2,2.221-4.419,4.412a1.455,1.455,0,1,1-2.043-2.071c.514-.532,1.05-1.043,1.575-1.565.077-.078.22-.146.168-.271s-.2-.068-.312-.069Q9377.272,3396.571,9372.847,3396.573Z" transform="translate(-9359.206 -3371.616)" fill="#878b8c"/>
    <path id="Path_136" data-name="Path 136" d="M9373.507,3329.644c2.772,0,5.544-.022,8.314.007a5.115,5.115,0,0,1,4.834,3.029,4.6,4.6,0,0,1,.47,2.031c.012,1.239.019,2.477,0,3.716a1.421,1.421,0,0,1-.984,1.4,1.462,1.462,0,0,1-1.9-1.449q.007-1.7,0-3.409a2.321,2.321,0,0,0-2.29-2.416c-.166-.009-.332-.007-.5-.007h-16.59a1.854,1.854,0,0,0-.191,0c-.11.011-.254-.047-.313.078s.087.2.16.27c.5.506,1.01,1.01,1.525,1.505a1.463,1.463,0,0,1,.42,1.541,1.365,1.365,0,0,1-1.189,1,1.412,1.412,0,0,1-1.256-.424q-2.213-2.193-4.408-4.4a1.439,1.439,0,0,1,0-2.01q2.206-2.236,4.444-4.44a1.454,1.454,0,0,1,2.067,2.045c-.518.546-1.067,1.063-1.6,1.594-.078.077-.219.147-.17.271s.2.068.313.068Q9369.082,3329.646,9373.507,3329.644Z" transform="translate(-9359.197 -3325.231)" fill="#878b8c"/>
  </g>
</svg>
