<svg xmlns="http://www.w3.org/2000/svg" width="62.213" height="57.001" viewBox="0 0 62.213 57.001">
  <g id="globe" transform="translate(-678 -1009.522)">
    <path id="Path_108" data-name="Path 108" d="M0,33.769C0,40.3,6.274,40.327,9.853,45.536c5.464,7.957,10.6,19.339,21.253,19.339A31.106,31.106,0,0,0,62.213,33.769c0-2.134-4.711-7.49-6.961-10.414C48.772,14.932,37.366,7.809,25.383,7.875,10.172,7.959,0,25.265,0,33.769Z" transform="translate(678 1001.647)" fill="#818ade" opacity="0.51"/>
    <g id="Layer_2" data-name="Layer 2" transform="translate(687.541 1013.217)">
      <g id="Layer_1" data-name="Layer 1" transform="translate(0 0)">
        <g id="Group_176" data-name="Group 176">
          <path id="Path_83" data-name="Path 83" d="M23.932,48.018a23.939,23.939,0,1,1,16.983-6.993,24.009,24.009,0,0,1-16.983,6.993Z" transform="translate(0.074 0.001)" stroke="#000" stroke-width="1"/>
          <path id="Path_84" data-name="Path 84" d="M55.932,55.667c-3.456,0-6.912-.039-10.367.024-1.02.018-1.221-.279-1.149-1.261a49.38,49.38,0,0,1,1.3-8.553c.187-.74.509-.965,1.261-.818a46.678,46.678,0,0,0,17.937,0c.654-.127,1.034-.01,1.217.7a48.476,48.476,0,0,1,1.355,9.11c.06.938-.494.8-1.05.8Q61.186,55.665,55.932,55.667Z" transform="translate(-31.921 -32.381)" fill="#bfc3ee" stroke="#000" stroke-width="0.5"/>
          <path id="Path_85" data-name="Path 85" d="M55.9,88.072c3.5,0,7.005.029,10.507-.02.885-.012,1.094.228,1.029,1.1a49.207,49.207,0,0,1-1.277,8.557c-.221.87-.549,1.123-1.421.952a45.763,45.763,0,0,0-17.658,0c-.863.168-1.205-.064-1.429-.942a50.251,50.251,0,0,1-1.289-8.7c-.068-.9.311-.971,1.031-.966C48.9,88.087,52.4,88.072,55.9,88.072Z" transform="translate(-31.886 -63.34)" fill="#bfc3ee" stroke="#000" stroke-width="0.5"/>
          <path id="Path_86" data-name="Path 86" d="M70.916,14.793a45.732,45.732,0,0,1-17.881.129c-.408-.079-1.016.09-.671-.756,1.19-2.917,2.615-5.673,5.2-7.62a6.274,6.274,0,0,1,8.1.018A16.467,16.467,0,0,1,70.916,14.793Z" transform="translate(-37.574 -3.647)" fill="#bfc3ee" stroke="#000" stroke-width="0.5"/>
          <path id="Path_87" data-name="Path 87" d="M71.107,128.988a19.887,19.887,0,0,1-3.908,6.881c-3.384,3.719-7.607,3.742-11.006.058a20.014,20.014,0,0,1-3.7-6.188c-.314-.772-.017-.8.6-.914A46.448,46.448,0,0,1,71.107,128.988Z" transform="translate(-37.649 -92.093)" fill="#bfc3ee" stroke="#000" stroke-width="0.5"/>
          <path id="Path_88" data-name="Path 88" d="M9.835,49.762c-1.261,0-2.526-.05-3.783.018-.811.044-.929-.3-.862-.984a23.528,23.528,0,0,1,4.145-11.42,1.067,1.067,0,0,1,1.474-.445c1.571.569,3.162,1.09,4.769,1.544.638.18.764.314.566,1.013a40.92,40.92,0,0,0-1.407,9.383c-.033.751-.275.934-.978.906C12.453,49.725,11.144,49.762,9.835,49.762Z" transform="translate(-3.701 -26.476)" fill="#bfc3ee" stroke="#000" stroke-width="0.5"/>
          <path id="Path_89" data-name="Path 89" d="M132.618,49.658h-1.4c-3.258,0-3.268,0-3.464-3.2a36.146,36.146,0,0,0-1.25-7.148c-.173-.644-.063-.751.52-.919,1.7-.488,3.368-1.054,5.041-1.617.423-.142.707-.236,1.047.224a23.02,23.02,0,0,1,4.378,11.9c.06.665-.235.777-.805.764C135.328,49.638,133.973,49.658,132.618,49.658Z" transform="translate(-90.925 -26.372)" fill="#bfc3ee" stroke="#000" stroke-width="0.5"/>
          <path id="Path_90" data-name="Path 90" d="M10,88.071c1.261,0,2.525.046,3.784-.017.748-.038.918.223.951.935a40.564,40.564,0,0,0,1.418,9.381c.217.756-.028.821-.6.991-1.647.487-3.289,1-4.9,1.591a.9.9,0,0,1-1.242-.408A23.384,23.384,0,0,1,5.178,89.012c-.072-.732.133-.99.893-.957C7.377,88.113,8.687,88.071,10,88.071Z" transform="translate(-3.695 -63.339)" fill="#bfc3ee" stroke="#000" stroke-width="0.5"/>
          <path id="Path_91" data-name="Path 91" d="M132.741,88.065c1.308,0,2.618.036,3.924-.015.7-.027.9.2.831.88a23.133,23.133,0,0,1-4.271,11.656.818.818,0,0,1-1.125.379c-1.658-.6-3.336-1.162-5.038-1.62-.732-.2-.679-.432-.511-1.041a42.006,42.006,0,0,0,1.385-9.247c.036-.764.207-1.058,1.021-1.012C130.215,88.118,131.48,88.065,132.741,88.065Z" transform="translate(-90.938 -63.332)" fill="#bfc3ee" stroke="#000" stroke-width="0.5"/>
          <path id="Path_92" data-name="Path 92" d="M37.205,141.559a22.444,22.444,0,0,1-11.221-6.833,28.805,28.805,0,0,1,5.236-1.734.543.543,0,0,1,.766.358,25.949,25.949,0,0,0,2.11,4.4,19.786,19.786,0,0,0,3.109,3.811Z" transform="translate(-18.671 -95.636)" fill="#bfc3ee" stroke="#000" stroke-width="0.5"/>
          <path id="Path_93" data-name="Path 93" d="M25.972,15.023c2.425-3.1,7.749-6.332,10.957-6.629a20.418,20.418,0,0,0-4.867,7.771c-.171.467-.424.672-.929.531a42.82,42.82,0,0,1-5.161-1.672Z" transform="translate(-18.662 -6.038)" fill="#bfc3ee" stroke="#000" stroke-width="0.5"/>
          <path id="Path_94" data-name="Path 94" d="M106.514,8.356a21.456,21.456,0,0,1,10.874,6.572,32.461,32.461,0,0,1-5.325,1.757c-.59.162-.716-.261-.86-.647A22.109,22.109,0,0,0,106.514,8.356Z" transform="translate(-76.6 -6.01)" fill="#bfc3ee" stroke="#000" stroke-width="0.5"/>
          <path id="Path_95" data-name="Path 95" d="M116.52,134.735a22.811,22.811,0,0,1-11.24,6.793,21.039,21.039,0,0,0,5.1-8.061c.2-.54.542-.563.976-.438A38.145,38.145,0,0,1,116.52,134.735Z" transform="translate(-75.712 -95.649)" fill="#bfc3ee" stroke="#000" stroke-width="0.5"/>
        </g>
      </g>
    </g>
  </g>
</svg>
