<svg xmlns="http://www.w3.org/2000/svg" width="70.682" height="61.478" viewBox="0 0 70.682 61.478">
  <g id="hands" transform="translate(-94.751 -1009.522)">
    <path id="Path_107" data-name="Path 107" d="M67.1,35.8A33.55,33.55,0,0,1,0,35.8c0-2.3,5.082-8.078,7.508-11.232C14.5,15.486,26.8,7.8,39.723,7.875,56.129,7.966,67.1,26.631,67.1,35.8Z" transform="translate(95.086 1001.647)" fill="#818ade" opacity="0.51"/>
    <g id="Layer_1" data-name="Layer 1" transform="translate(95 1020.761)">
      <path id="Path_51" data-name="Path 51" d="M53.447,25.487a13.954,13.954,0,0,1,1.342,2.793,3.313,3.313,0,0,1-2.973,3.787,1.26,1.26,0,0,0-1.243,1.094,3.5,3.5,0,0,1-3.248,2.668,1.936,1.936,0,0,0-1.223.862,3.089,3.089,0,0,1-2.809,1.728,1.456,1.456,0,0,0-1.078.4c-1.184,2.014-3.022,2.169-4.944,1.651a18.066,18.066,0,0,1-3.965-1.717c-.729-.4-1.182-.443-1.744.172a15.776,15.776,0,0,1-1.508,1.364,2.771,2.771,0,0,1-4.371-.552,10.718,10.718,0,0,0-1.6-1.218c-.776-.677-1.5-1.418-2.257-2.112-.371-.338-.747-.817-1.187-.907a3.634,3.634,0,0,1-2.708-2.162,2.577,2.577,0,0,0-1.349-1.173,3.489,3.489,0,0,1-2.509-4.136,1.472,1.472,0,0,0,.014-.828c-1.123-2.241-2.281-4.465-3.433-6.7-1.893,1.123-1.9,1.13-3.8-.039C4.831,19.228,2.832,17.95.8,16.734c-.921-.55-1.025-1.089-.4-1.981Q5.285,7.8,10.085.786c.647-.946,1.23-.989,2.152-.392,2.274,1.475,4.586,2.895,6.916,4.28.894.532,1.357,1.095.419,2.4,1.54-.073,2.775-.045,3.986-.205a19.933,19.933,0,0,1,8.635.448,2.33,2.33,0,0,0,1.744-.3,10.706,10.706,0,0,1,10.772-.964,18.244,18.244,0,0,0,4.215,1.015c.4.062.9-.408,1.316-.684.352-.232.62-.607.988-.8,2.575-1.344,5.184-2.622,7.741-4,.965-.519,1.46-.285,1.968.612q4.406,7.772,8.9,15.5c.565.97.5,1.534-.551,2.053-2.605,1.283-5.167,2.656-7.768,3.947-.386.192-1.175.343-1.3.17-.821-1.144-1.73-.537-2.575-.206C56.205,24.227,54.81,24.888,53.447,25.487ZM31.327,8.507a14.949,14.949,0,0,0-6.706-.486,37.067,37.067,0,0,1-4.773.216,1.766,1.766,0,0,0-1.789.85c-1.9,2.8-3.783,5.628-5.81,8.341a2.267,2.267,0,0,0-.07,3.166,27.64,27.64,0,0,1,1.9,3.744c.36.71.76,1.4,1.217,2.236,1.021-.9,1.84-1.647,2.679-2.367a3.208,3.208,0,0,1,4.91.589c.277.378.5.794.726,1.15,3.552-.385,4.918.952,4.531,4.413,2.081.777,2.451,3.426,4.594,4.279a1.79,1.79,0,0,1,.653,1.52c-.146,1.128.492,1.609,1.3,1.973A20.485,20.485,0,0,0,37.8,39.31c1.1.295,2.43.361,2.931-.852.493-1.193-.828-1.574-1.591-2.059-2.084-1.322-4.226-2.553-6.309-3.877-.272-.173-.33-.682-.487-1.035a3.752,3.752,0,0,1,1.059-.069,3.123,3.123,0,0,1,.876.5q3.762,2.335,7.521,4.674c.987.616,1.986.922,2.854-.128.678-.819.264-1.909-.971-2.781-.237-.167-.49-.311-.735-.467-2.289-1.451-4.59-2.885-6.854-4.374-.285-.188-.379-.666-.561-1.01.391-.033.9-.241,1.157-.072,3.037,1.971,6.015,4.033,9.064,5.984a2.85,2.85,0,0,0,2.164.535,2.592,2.592,0,0,0,1.329-1.943,3.1,3.1,0,0,0-1.365-2C44.737,28.163,41.514,26.1,38.321,24a6.447,6.447,0,0,1-1.059-.757c-.168-.169-.175-.5-.254-.755a2.646,2.646,0,0,1,.884-.232,1.9,1.9,0,0,1,.754.409q5.669,3.8,11.329,7.6a2.036,2.036,0,0,0,2.978-.2c.921-1.047.674-2.356-.72-3.309-4.4-3.005-8.8-6-13.247-8.928a2.682,2.682,0,0,0-1.951-.146c-2,.554-3.927,1.427-5.951,1.837a14.75,14.75,0,0,1-5.022.158c-2.2-.33-2.855-1.949-1.773-3.874a11.094,11.094,0,0,1,1.81-2.436C27.741,11.74,29.478,10.213,31.327,8.507ZM58.775,21.718c-2.486-4.331-4.884-8.532-7.321-12.71a1.343,1.343,0,0,0-.981-.644c-2.671.331-5.047-.713-7.481-1.493-1.88-.6-3.763-.978-5.661-.1a30.7,30.7,0,0,0-10.9,8.261A10.806,10.806,0,0,0,25.238,17.7c1.017.312,2.117,1.043,3.035.86a81.394,81.394,0,0,0,8.63-2.339,2.545,2.545,0,0,1,2.539.257c3.738,2.594,7.512,5.136,11.3,7.658.438.292,1.147.616,1.545.458C54.428,23.743,56.51,22.742,58.775,21.718ZM51.754,6.784c2.965,5.164,5.792,10.11,8.663,15.03a1.146,1.146,0,0,0,1.006.432c2.42-1.169,4.8-2.415,7.327-3.707-2.965-5.162-5.815-10.145-8.709-15.1a1.115,1.115,0,0,0-1.014-.373C56.648,4.226,54.305,5.464,51.754,6.784ZM8.789,20.142l9.849-14.2C16.437,4.564,14.37,3.321,12.358,2c-.808-.532-1.238-.378-1.753.384C8.68,5.226,6.7,8.036,4.742,10.862,3.677,12.4,2.616,13.938,1.473,15.593Zm16.4,6.729a8.6,8.6,0,0,0-1.462.786c-1.278,1.1-2.509,2.257-3.769,3.379-.849.756-1.114,1.617-.318,2.518a1.743,1.743,0,0,0,2.687.158A51.991,51.991,0,0,0,26.268,30.1a2.21,2.21,0,0,0,.4-1.885C26.477,27.664,25.711,27.315,25.189,26.871Zm-4.933-2.523a10.229,10.229,0,0,0-1.35.8c-.991.853-1.931,1.765-2.922,2.618a1.5,1.5,0,0,0-.154,2.4,1.7,1.7,0,0,0,2.664.284,36.359,36.359,0,0,0,2.978-2.765,2.014,2.014,0,0,0,.449-1.731C21.611,25.306,20.845,24.881,20.256,24.348Zm4.477,13.27a11.975,11.975,0,0,0,1.1-.749c.906-.8,1.773-1.638,2.691-2.419.778-.662.9-1.348.184-2.1-.669-.7-1.421-1.025-2.272-.268-.937.834-1.919,1.629-2.767,2.546a1.715,1.715,0,0,0-.41,1.468,6.53,6.53,0,0,0,1.47,1.519Zm7.5-1.434c-.389-.436-.659-.945-1.076-1.142a1.481,1.481,0,0,0-1.28.121c-.918.69-1.721,1.531-2.6,2.272-.672.565-.855,1.155-.226,1.836a1.282,1.282,0,0,0,2.014.165c.822-.738,1.655-1.465,2.453-2.229a6.911,6.911,0,0,0,.718-1.024Z" transform="translate(0 0)" stroke="#000" stroke-width="0.5"/>
    </g>
  </g>
</svg>
