<svg xmlns="http://www.w3.org/2000/svg" xmlns:xlink="http://www.w3.org/1999/xlink" width="66.616" height="59.167" viewBox="0 0 66.616 59.167">
  <defs>
    <clipPath id="clip-path">
      <rect id="Rectangle_1261" data-name="Rectangle 1261" width="48.43" height="58.204" transform="translate(0 0)" fill="none"/>
    </clipPath>
  </defs>
  <g id="inovation" transform="translate(-95.569 -1226.986)">
    <path id="Path_109" data-name="Path 109" d="M67.1,41.425c0-8.987-5.022-12.245-13.41-20.632S43.092,7.875,33.55,7.875C15.021,7.875-2.711,21.133.973,32.81S-1.46,49.183,8.228,58.318s15.136,5.627,28.06,5.555C53.066,71.469,67.1,50.6,67.1,41.425Z" transform="translate(95.086 1220.647)" fill="#818ade" opacity="0.51"/>
    <g id="Group_304" data-name="Group 304" transform="translate(104.161 1226.985)">
      <g id="Group_303" data-name="Group 303" transform="translate(0 0.001)" clip-path="url(#clip-path)">
        <path id="Path_2485" data-name="Path 2485" d="M74.311,62.621a15.359,15.359,0,0,1-3.5,9.925,23.758,23.758,0,0,0-3.305,5.2,22.37,22.37,0,0,0-1.875,6.818,35.828,35.828,0,0,0-.122,4.108c.011.721.012,1.442,0,2.162s-.262.975-.956.913a2.007,2.007,0,0,0-2.069,1.221,5.119,5.119,0,0,1-7.732,1.56A4.964,4.964,0,0,1,53.269,92.4c-.246-.618-.291-.629-.936-.618-.31.005-.622,0-.932-.023A.751.751,0,0,1,50.6,91a1.188,1.188,0,0,1-.008-.212,38.4,38.4,0,0,0-.541-6.138c-.1-1.021-.247-2.037-.355-3.058a10.209,10.209,0,0,0-.686-2.261,23.488,23.488,0,0,0-3.8-6.711,16.179,16.179,0,0,1,4.9-24.327c6.14-3.3,12.221-2.762,17.839,1.358A15.374,15.374,0,0,1,74.1,60.2c.128.856.153,1.715.209,2.42M57.848,82.269V82.3h5.6c.692,0,.832-.109.98-.784a21.957,21.957,0,0,1,4.662-9.527,14.069,14.069,0,0,0,3.136-12.432A14.59,14.59,0,1,0,46.457,71.542a25.984,25.984,0,0,1,4.977,10.137.661.661,0,0,0,.734.6c1.893-.014,3.786-.006,5.68-.006m.134,1.713H52.688a.745.745,0,0,0-.63.171,4.79,4.79,0,0,0,.145,1.919.6.6,0,0,0,.384.159c.14.012.282.013.423.013l9.7-.017c.93,0,1.015-.078,1.128-1.017.018-.154.051-.306.07-.46.085-.679.01-.765-.671-.765H57.982m.029,4.04v.007c-1.5,0-2.994,0-4.491,0-1.334,0-1.4.075-1.4,1.422,0,.709.09.8.808.8q4,0,8.007-.012c.621,0,1.239.008,1.859.067.653.062.877-.184.854-.831-.009-.239-.053-.479-.046-.717.018-.63-.071-.734-.718-.735q-2.436,0-4.872,0m-3.147,4.006a3.36,3.36,0,0,0,3.388,2.062c1.505-.207,2.622-1.044,2.735-2.062Z" transform="translate(-33.805 -37.472)"/>
        <path id="Path_2486" data-name="Path 2486" d="M2.413,124.14c.484.023.992.034,1.5.075a.884.884,0,0,1-.011,1.765q-1.521.036-3.043,0A.851.851,0,0,1,0,125.11a.865.865,0,0,1,.87-.9c.056,0,.113,0,.169-.005l1.374-.064" transform="translate(0 -100.797)"/>
        <path id="Path_2487" data-name="Path 2487" d="M234.812,126.062c-.466,0-.933.008-1.4,0a.855.855,0,0,1-.949-.905c0-.531.328-.829.93-.877a20.813,20.813,0,0,1,2.88,0,.842.842,0,0,1,.907.9.858.858,0,0,1-.928.881c-.48.014-.961,0-1.441,0" transform="translate(-188.751 -100.868)"/>
        <path id="Path_2488" data-name="Path 2488" d="M201.481,40.7a.866.866,0,0,1-.79-.537.731.731,0,0,1,.12-.861,18.616,18.616,0,0,1,2.268-2.273.875.875,0,0,1,1.122.043.784.784,0,0,1,.142,1.1,13.487,13.487,0,0,1-2.423,2.408c-.166.128-.194.118-.439.119" transform="translate(-162.879 -29.919)"/>
        <path id="Path_2489" data-name="Path 2489" d="M37.215,36.7a.876.876,0,0,1,.582.25c.759.7,1.491,1.422,2.186,2.181a.778.778,0,0,1-.02,1.169.79.79,0,0,1-1.166.081,20.4,20.4,0,0,1-2.248-2.235.8.8,0,0,1-.1-.945.882.882,0,0,1,.766-.5" transform="translate(-29.507 -29.797)"/>
        <path id="Path_2490" data-name="Path 2490" d="M126.145,2.411c0,.466.008.932,0,1.4a.873.873,0,1,1-1.744.075,24.369,24.369,0,0,1-.014-3,.861.861,0,0,1,.882-.88c.516,0,.817.305.866.887,0,.056.011.113.011.169q0,.678,0,1.355" transform="translate(-100.963 0)"/>
        <path id="Path_2491" data-name="Path 2491" d="M90.376,103.563a.742.742,0,0,1-.575-.219c-.275-.243-.549-.487-.828-.725a.678.678,0,0,0-.853-.106,5.406,5.406,0,0,1-1.362.566.763.763,0,0,0-.552.687c-.059.433-.088.869-.14,1.3a.656.656,0,0,1-.713.633c-.678.008-1.357.023-2.034,0-.548-.02-.706-.18-.794-.731-.062-.39-.1-.783-.139-1.177a.729.729,0,0,0-.623-.74,4.308,4.308,0,0,1-1.4-.583.375.375,0,0,0-.52.048c-.342.294-.708.561-1.063.841a.814.814,0,0,1-1.176-.03c-.458-.44-.907-.892-1.348-1.349a.748.748,0,0,1-.025-1.1c.26-.316.53-.624.8-.933a.632.632,0,0,0,.08-.781,6.031,6.031,0,0,1-.572-1.36c-.106-.417-.459-.549-.84-.6-.322-.043-.646-.065-.97-.088-.588-.042-.817-.266-.825-.844-.008-.622-.007-1.244,0-1.865.005-.566.2-.787.769-.861.42-.055.84-.1,1.261-.153a.635.635,0,0,0,.606-.547,4.476,4.476,0,0,1,.557-1.367.471.471,0,0,0-.043-.668c-.3-.321-.548-.682-.817-1.026a.8.8,0,0,1,.071-1.172q.641-.647,1.291-1.287a.753.753,0,0,1,1.128-.081c.347.266.695.533,1.028.815a.458.458,0,0,0,.536.093c.558-.235,1.124-.452,1.691-.668a.456.456,0,0,0,.329-.436c.036-.436.107-.868.162-1.3a.822.822,0,0,1,.929-.826c.579-.007,1.159-.008,1.738,0s.835.253.9.842c.042.364.123.726.14,1.091a.716.716,0,0,0,.538.713c.45.163.892.351,1.325.555a.677.677,0,0,0,.812-.112c.3-.257.621-.489.932-.734a.751.751,0,0,1,1.158.048q.688.683,1.368,1.374a.792.792,0,0,1,.018,1.048c-.284.387-.574.77-.88,1.139a.4.4,0,0,0-.063.489c.261.578.509,1.164.731,1.758a.317.317,0,0,0,.33.239c.478.044.954.105,1.429.17a.828.828,0,0,1,.809.906c.006.579,0,1.159,0,1.738a.835.835,0,0,1-.835.924c-.434.054-.867.116-1.3.168a.473.473,0,0,0-.434.333q-.311.81-.672,1.6a.5.5,0,0,0,.076.582c.265.331.522.667.783,1a.832.832,0,0,1-.086,1.3q-.577.561-1.139,1.137a.852.852,0,0,1-.7.329m2.946-8.239c.141-.457-.116-.565-.5-.584-.3-.015-.589-.061-.884-.1a1.063,1.063,0,0,1-.956-.778,15.046,15.046,0,0,0-.946-2.262.986.986,0,0,1,.108-1.114c.146-.19.3-.373.453-.56.469-.586.458-.576-.061-1.121-.184-.194-.3-.178-.487-.023-.291.246-.6.474-.9.709a.971.971,0,0,1-1.068.138c-.76-.338-1.527-.662-2.292-.989a1.237,1.237,0,0,1-.764-.945c-.05-.248-.065-.5-.115-.752-.157-.775.077-.62-.759-.652-.263-.01-.42.03-.43.353s-.115.667-.147,1a1.048,1.048,0,0,1-.757.968,17.534,17.534,0,0,0-2.226.917,1.062,1.062,0,0,1-1.226-.135c-.276-.22-.556-.435-.837-.649-.076-.058-.168-.18-.252-.113a3.079,3.079,0,0,0-.669.638c-.1.148.146.3.251.441.2.259.4.509.608.762a.949.949,0,0,1,.133,1.033c-.242.571-.532,1.127-.723,1.714a1.82,1.82,0,0,1-1.866,1.463c-.153,0-.306.048-.46.057-.2.012-.312.089-.293.313a2.576,2.576,0,0,1,0,.508c-.025.224.082.3.282.319.351.04.7.1,1.049.141a1.127,1.127,0,0,1,1.038.854,13.052,13.052,0,0,0,.851,2.073,1.1,1.1,0,0,1-.141,1.331c-.127.151-.245.31-.367.466-.456.586-.448.579.091,1.115.163.162.28.186.454.035.288-.25.584-.491.883-.728a.972.972,0,0,1,1.112-.14,15.154,15.154,0,0,0,2.371,1,.989.989,0,0,1,.682.843c.036.223.06.448.091.671.138,1-.025.728.886.776.21.011.3-.052.313-.279.026-.351.121-.7.152-1.047a1.074,1.074,0,0,1,.792-.986c.53-.192,1.05-.414,1.571-.632,1.15-.481,1.064-.838,2.389.277.559.47.567.44,1.075-.082.174-.179.193-.3.028-.488-.25-.287-.471-.6-.713-.894a.987.987,0,0,1-.125-1.178,14.8,14.8,0,0,0,.95-2.26,1.038,1.038,0,0,1,.935-.747c.309-.036.616-.089.925-.107.38-.022.634-.13.492-.581" transform="translate(-59.999 -68.951)"/>
        <path id="Path_2492" data-name="Path 2492" d="M108.548,125.288a4.633,4.633,0,0,1-4.661-4.651,4.675,4.675,0,1,1,9.351-.017,4.636,4.636,0,0,1-4.689,4.667m-.01-1.365a3.286,3.286,0,1,0-3.271-3.286,3.264,3.264,0,0,0,3.271,3.286" transform="translate(-84.352 -94.15)"/>
      </g>
    </g>
  </g>
</svg>
