<svg xmlns="http://www.w3.org/2000/svg" width="20.507" height="20.504" viewBox="0 0 20.507 20.504">
  <g id="Group_270" data-name="Group 270" transform="translate(0)">
    <path id="Path_1735" data-name="Path 1735" d="M6844.106-431.468c.649,0,1.3,0,1.949,0a1.129,1.129,0,0,1,1.194,1.1c.078.84.136,1.682.253,2.517a9.307,9.307,0,0,0,.364,1.443,1.292,1.292,0,0,1-.366,1.428c-.748.725-1.473,1.474-2.216,2.2a.283.283,0,0,0-.057.407,17.222,17.222,0,0,0,7.179,7.171.27.27,0,0,0,.384-.066c.743-.755,1.5-1.5,2.242-2.252a1.21,1.21,0,0,1,1.333-.342,13.279,13.279,0,0,0,3.879.623,1.128,1.128,0,0,1,1.2.852,1.316,1.316,0,0,1,.038.342q0,1.949,0,3.9a1.116,1.116,0,0,1-1.17,1.176,19.053,19.053,0,0,1-14.417-6.478,18.834,18.834,0,0,1-4.629-9.506,17.448,17.448,0,0,1-.287-3.4,1.119,1.119,0,0,1,1.12-1.12C6842.771-431.472,6843.438-431.468,6844.106-431.468Z" transform="translate(-6840.981 431.47)"/>
  </g>
</svg>
