<svg xmlns="http://www.w3.org/2000/svg" width="215.5" height="215.5" viewBox="0 0 215.5 215.5">
  <g id="Group_290" data-name="Group 290" transform="translate(-0.505 -0.504)">
    <g id="Group_289" data-name="Group 289" transform="translate(0.505 0.504)">
      <path id="Path_2473" data-name="Path 2473" d="M35.228,100.488a66.617,66.617,0,0,0,65.2,66.6V146.237a45.412,45.412,0,0,0,31.414-12.713l15.522,15.587,15.314,15.378a87.984,87.984,0,0,1-61.64,25.09c-.209,0-.417,0-.626-.016a88.28,88.28,0,1,1,88.319-98.576H167.787a66.62,66.62,0,0,0-65.942-57.114h-.8A66.625,66.625,0,0,0,35.228,100.488Z" transform="translate(6.909 7.061)" fill="#f0fafe"/>
      <path id="Path_2474" data-name="Path 2474" d="M159.314,83.118H136.52a45.745,45.745,0,0,0-43.951-36.23c-.273-.016-.53-.016-.8-.016a45.749,45.749,0,1,0,0,91.5h.193v20.852A66.618,66.618,0,0,1,92.569,26h.8A66.62,66.62,0,0,1,159.314,83.118Z" transform="translate(15.382 14.929)"/>
      <path id="Path_2475" data-name="Path 2475" d="M196.148,98.55a88.291,88.291,0,1,0-88.319,98.576c.209.016.417.016.626.016a87.984,87.984,0,0,0,61.64-25.09l13,13.05.321.337a107.746,107.746,0,1,1,32.136-86.89q.457,4.792.449,9.7,0,5.177-.5,10.241H106.85V98.55Z" transform="translate(-0.505 -0.504)" fill="#474fce"/>
    </g>
  </g>
</svg>
