<svg xmlns="http://www.w3.org/2000/svg" width="680.059" height="367.077" viewBox="0 0 680.059 367.077">
  <g id="illustration" transform="translate(-149 -501.86)">
    <g id="undraw_team_collaboration_re_ow29" transform="translate(149 501.86)">
      <path id="Path_2000" data-name="Path 2000" d="M180.472,617.4l-2.121,10.643c-.16.814-.327,1.642-.509,2.463a10.379,10.379,0,0,0-5.332.3,49.763,49.763,0,0,1,3.661,6.124c-1.337,4.119-3.3,7.926-6.582,10.679a16.5,16.5,0,0,1-15.946,2.8l.094-.421c-3.531-6.85-1.613-15.488,2.775-21.816a42.418,42.418,0,0,1,7.882-8.332c2.964-2.47,6.168-4.686,9.342-6.872a4.352,4.352,0,0,1,6.734,4.431Z" transform="translate(-137.401 -310.832)" fill="#e4e4e4"/>
      <path id="a4b268fa-75d0-4ac1-9d87-14bdca948464-2189" d="M154.815,684.139c-.893-6.5-1.811-13.091-1.185-19.664a30.927,30.927,0,0,1,5.964-16.215,26.974,26.974,0,0,1,6.921-6.271c.692-.436,1.329.66.64,1.095a25.644,25.644,0,0,0-10.144,12.239c-2.208,5.617-2.563,11.74-2.179,17.707.23,3.608.718,7.192,1.21,10.773a.654.654,0,0,1-.443.78.638.638,0,0,1-.78-.443Z" transform="translate(-137.816 -318.951)" fill="#f2f2f2"/>
      <path id="Path_2001" data-name="Path 2001" d="M165.491,249.986q46.679-.812,93.369-.233t93.334,2.56q26.178,1.11,52.335,2.66c1.4.083,1.4-2.1,0-2.179q-46.6-2.758-93.277-4.127t-93.359-1.335q-26.2.017-52.4.475a1.09,1.09,0,0,0,0,2.179Z" transform="translate(-140.829 -211.023)" fill="#e6e6e6"/>
      <path id="Path_2002" data-name="Path 2002" d="M464.028,230.972l13.608-1.013c1.39-.1,1.4-2.284,0-2.179l-13.608,1.013C462.638,228.9,462.626,231.076,464.028,230.972Z" transform="translate(-222.493 -205.674)" fill="#e6e6e6"/>
      <path id="Path_2003" data-name="Path 2003" d="M464.028,248.972l13.608-1.013c1.39-.1,1.4-2.284,0-2.179l-13.608,1.013C462.638,246.9,462.626,249.076,464.028,248.972Z" transform="translate(-222.493 -210.598)" fill="#e6e6e6"/>
      <path id="Path_2004" data-name="Path 2004" d="M462.62,241.132l19.347,1.757c1.4.127,1.388-2.053,0-2.179l-19.347-1.757C461.224,238.826,461.232,241.006,462.62,241.132Z" transform="translate(-222.109 -208.73)" fill="#e6e6e6"/>
      <path id="Path_2005" data-name="Path 2005" d="M175.126,228.141a4.821,4.821,0,0,0-4.455,2.91,4.34,4.34,0,0,0,1,5.155,5.159,5.159,0,0,0,4.888.993,4.361,4.361,0,0,0,2.923-4.1,4.873,4.873,0,0,0-3.036-4.7,1.094,1.094,0,0,0-1.34.761,1.121,1.121,0,0,0,.761,1.34c.19.073-.173-.093,0,0,.073.04.147.076.219.118s.119.076.178.114c.2.133-.1-.1.031.022.113.1.225.2.327.319.039.043.191.163.073.079-.09-.064-.035-.049,0,0s.054.077.08.117a3.888,3.888,0,0,1,.231.4c.016.032.031.064.047.1.031.059.075.075,0,0s-.025-.066,0,0c.016.045.034.089.049.135a4.2,4.2,0,0,1,.128.448c.016.07.029.141.043.211.049.25-.007-.156,0,.03.01.155.021.309.019.465q0,.107-.009.214c0,.035-.006.071-.009.106-.011.171-.012-.062.012-.078a2.009,2.009,0,0,0-.1.448c-.02.068-.043.134-.064.2-.076.234.071-.127-.01.032a3.987,3.987,0,0,1-.223.4c-.036.054-.169.176-.06.091s-.062.066-.1.107-.1.1-.155.152a1.247,1.247,0,0,1-.108.094c-.007,0,.182-.126.08-.061-.129.083-.252.171-.389.243-.016.008-.19.089-.19.092-.008-.029.224-.082.065-.03-.033.011-.066.024-.1.035a3.552,3.552,0,0,1-.443.118c-.034.007-.071.01-.1.019-.113.029.108-.017.114-.013a.95.95,0,0,0-.248.022,4.04,4.04,0,0,1-.464,0l-.107-.008c-.083,0-.144-.065-.033,0,.085.05.078.014,0,0l-.106-.019a4.213,4.213,0,0,1-.453-.111c-.08-.024-.159-.053-.238-.08a.627.627,0,0,1-.1-.039c0-.009.2.1.1.039-.136-.073-.277-.135-.41-.215-.071-.043-.139-.089-.208-.135a.668.668,0,0,1-.086-.062c0-.009.169.145.081.062-.111-.105-.229-.2-.334-.312l-.071-.078-.023-.026q-.089-.108,0,0c.058.017.055.08,0,0l-.06-.087a2.28,2.28,0,0,1-.225-.4c.005,0,.094.262.026.061-.013-.038-.027-.075-.04-.113q-.038-.113-.066-.229c-.019-.076-.029-.155-.048-.231-.032-.128.019.1.013.1s-.01-.129-.012-.156c-.009-.171.011-.337.014-.507,0-.132-.011.1-.014.1a.369.369,0,0,1,.021-.116c.02-.09.038-.179.062-.268s.059-.2.1-.3c.013-.037.03-.074.042-.111.046-.137-.091.165-.015.042.1-.17.181-.353.291-.521.026-.04.185-.261.1-.149s.086-.1.118-.135c.134-.149.291-.271.429-.414.082-.084-.057.042-.065.047.043-.031.085-.062.128-.092q.113-.078.233-.148c.089-.052.19-.091.277-.147.1-.065-.078.029-.082.031a.811.811,0,0,1,.146-.056c.084-.03.451-.188.528-.139,0,0-.279.022-.056.008.053,0,.1-.009.158-.011.106,0,.213,0,.319,0a1.1,1.1,0,0,0,1.09-1.09,1.114,1.114,0,0,0-1.09-1.09Z" transform="translate(-142.411 -205.774)" fill="#e6e6e6"/>
      <path id="Path_2006" data-name="Path 2006" d="M196.126,228.141a4.82,4.82,0,0,0-4.455,2.91,4.34,4.34,0,0,0,1,5.155,5.16,5.16,0,0,0,4.888.993,4.361,4.361,0,0,0,2.923-4.1,4.873,4.873,0,0,0-3.036-4.7,1.094,1.094,0,0,0-1.34.761,1.121,1.121,0,0,0,.761,1.34c.19.073-.173-.093,0,0,.073.04.147.076.219.118s.119.076.178.114c.2.133-.1-.1.031.022.113.1.224.2.327.319.039.043.191.163.073.079-.09-.064-.035-.049,0,0s.054.077.08.117a3.9,3.9,0,0,1,.231.4c.016.032.031.064.047.1.031.059.075.075,0,0s-.025-.066,0,0c.016.045.034.089.049.135a4.2,4.2,0,0,1,.128.448c.016.07.029.141.043.211.049.25-.007-.156,0,.03.01.155.021.309.019.465q0,.107-.009.214c0,.035-.006.071-.009.106-.011.171-.012-.062.012-.078a2.01,2.01,0,0,0-.1.448c-.02.068-.043.134-.064.2-.076.234.071-.127-.01.032a3.975,3.975,0,0,1-.223.4c-.035.054-.169.176-.06.091s-.062.066-.1.107-.1.1-.155.152a1.242,1.242,0,0,1-.108.094c-.007,0,.182-.126.08-.061-.129.083-.252.171-.389.243-.016.008-.19.089-.19.092-.008-.029.224-.082.065-.03l-.1.035a3.553,3.553,0,0,1-.443.118c-.034.007-.071.01-.1.019-.113.029.108-.017.114-.013a.95.95,0,0,0-.248.022,4.04,4.04,0,0,1-.464,0l-.107-.008c-.083,0-.144-.065-.033,0,.085.05.078.014,0,0l-.106-.019a4.212,4.212,0,0,1-.453-.111c-.08-.024-.159-.053-.238-.08a.627.627,0,0,1-.1-.039c0-.009.2.1.1.039-.136-.073-.277-.135-.41-.215-.071-.043-.139-.089-.208-.135a.67.67,0,0,1-.086-.062c0-.009.169.145.081.062-.111-.105-.229-.2-.334-.312l-.071-.078-.023-.026q-.089-.108,0,0c.058.017.055.08,0,0l-.06-.087a2.278,2.278,0,0,1-.225-.4c.005,0,.094.262.026.061-.013-.038-.027-.075-.04-.113q-.038-.113-.066-.229c-.019-.076-.029-.155-.048-.231-.032-.128.019.1.013.1s-.01-.129-.012-.156c-.009-.171.011-.337.014-.507,0-.132-.011.1-.014.1a.369.369,0,0,1,.021-.116c.02-.09.038-.179.062-.268s.059-.2.1-.3c.013-.037.03-.074.042-.111.046-.137-.091.165-.015.042.1-.17.181-.353.291-.521.026-.04.185-.261.1-.149s.086-.1.118-.135c.134-.149.291-.271.429-.414.082-.084-.057.042-.065.047.043-.031.085-.062.128-.092q.114-.078.233-.148c.089-.052.191-.091.277-.147.1-.065-.078.029-.082.031a.809.809,0,0,1,.146-.056c.084-.03.451-.188.528-.139,0,0-.279.022-.056.008.053,0,.1-.009.158-.011.106,0,.213,0,.319,0a1.1,1.1,0,0,0,1.09-1.09,1.114,1.114,0,0,0-1.09-1.09Z" transform="translate(-148.156 -205.774)" fill="#e6e6e6"/>
      <path id="Path_2007" data-name="Path 2007" d="M217.126,228.141a4.821,4.821,0,0,0-4.455,2.91,4.34,4.34,0,0,0,1,5.155,5.159,5.159,0,0,0,4.888.993,4.361,4.361,0,0,0,2.923-4.1,4.873,4.873,0,0,0-3.036-4.7,1.094,1.094,0,0,0-1.34.761,1.121,1.121,0,0,0,.761,1.34c.19.073-.174-.093,0,0,.073.04.147.076.219.118s.119.076.178.114c.2.133-.1-.1.031.022.113.1.225.2.327.319.039.043.191.163.073.079-.09-.064-.035-.049,0,0s.054.077.08.117a3.885,3.885,0,0,1,.231.4c.016.032.031.065.047.1.031.059.075.075,0,0s-.025-.066,0,0c.016.045.034.089.049.135a4.189,4.189,0,0,1,.128.448c.016.07.029.141.043.211.049.25-.007-.156,0,.03.01.155.021.309.019.465q0,.107-.009.214c0,.035-.006.071-.009.106-.011.171-.012-.062.012-.078a2.01,2.01,0,0,0-.1.448c-.02.068-.043.134-.064.2-.076.234.071-.127-.01.032a3.984,3.984,0,0,1-.223.4c-.036.054-.169.176-.06.091s-.062.066-.1.107-.1.1-.155.152a1.243,1.243,0,0,1-.108.094c-.007,0,.182-.126.08-.061-.129.083-.252.171-.389.243-.016.008-.19.089-.19.092-.008-.029.224-.082.065-.03l-.1.035a3.554,3.554,0,0,1-.443.118c-.034.007-.071.01-.1.019-.113.029.108-.017.114-.013a.95.95,0,0,0-.248.022,4.04,4.04,0,0,1-.464,0l-.107-.008c-.083,0-.144-.065-.033,0,.085.05.078.014,0,0l-.106-.019a4.211,4.211,0,0,1-.453-.111c-.08-.024-.159-.053-.238-.08a.629.629,0,0,1-.1-.039c0-.009.2.1.1.039-.136-.073-.277-.135-.41-.215-.071-.043-.139-.089-.208-.135a.673.673,0,0,1-.086-.062c0-.009.169.145.081.062-.111-.105-.229-.2-.334-.312l-.071-.078-.023-.026q-.089-.108,0,0c.058.017.055.08,0,0l-.06-.087a2.276,2.276,0,0,1-.225-.4c.005,0,.094.262.026.061-.013-.038-.027-.075-.04-.113q-.038-.113-.066-.229c-.019-.076-.029-.155-.048-.231-.032-.128.019.1.013.1s-.01-.129-.012-.156c-.009-.171.011-.337.014-.507,0-.132-.011.1-.014.1a.369.369,0,0,1,.021-.116c.02-.09.038-.179.062-.268s.059-.2.1-.3c.013-.037.03-.074.042-.111.046-.137-.091.165-.015.042.1-.17.181-.353.291-.521.026-.04.185-.261.1-.149s.086-.1.118-.135c.134-.149.291-.271.429-.414.082-.084-.057.042-.065.047.043-.031.085-.062.128-.092q.114-.078.233-.148c.089-.052.19-.091.277-.147.1-.065-.078.029-.081.031a.809.809,0,0,1,.146-.056c.084-.03.451-.188.528-.139,0,0-.279.022-.056.008.053,0,.1-.009.158-.011.107,0,.213,0,.319,0a1.1,1.1,0,0,0,1.09-1.09,1.114,1.114,0,0,0-1.09-1.09Z" transform="translate(-153.9 -205.774)" fill="#e6e6e6"/>
      <path id="Path_2008" data-name="Path 2008" d="M416.908,461.056H149.64a12.762,12.762,0,0,1-12.747-12.747V210.1a12.762,12.762,0,0,1,12.747-12.747H416.908A12.762,12.762,0,0,1,429.656,210.1v238.21A12.761,12.761,0,0,1,416.908,461.056ZM149.641,198.8A11.307,11.307,0,0,0,138.346,210.1V448.309A11.307,11.307,0,0,0,149.641,459.6H416.908A11.307,11.307,0,0,0,428.2,448.309V210.1A11.307,11.307,0,0,0,416.908,198.8Z" transform="translate(-133.294 -197.352)" fill="#e6e6e6"/>
      <path id="Path_2009" data-name="Path 2009" d="M153.435,419.362l93.988-.286,93.509-.284,52.749-.161a1.09,1.09,0,0,0,0-2.179l-93.988.286-93.509.284-52.749.16a1.09,1.09,0,0,0,0,2.179Z" transform="translate(-137.531 -257.285)" fill="#e6e6e6"/>
      <path id="Path_2010" data-name="Path 2010" d="M218.279,404.708l.581-34.316a1.09,1.09,0,0,0-2.179,0l-.581,34.316A1.09,1.09,0,0,0,218.279,404.708Z" transform="translate(-154.961 -244.398)" fill="#e6e6e6"/>
      <path id="Path_2011" data-name="Path 2011" d="M280.115,397.259l1.416-43.133.4-12.324c.046-1.4-2.133-1.4-2.179,0l-1.416,43.133-.4,12.324C277.89,398.662,280.069,398.66,280.115,397.259Z" transform="translate(-171.875 -236.577)" fill="#e6e6e6"/>
      <path id="Path_2012" data-name="Path 2012" d="M341.365,313.658c-.854,15.277-2.435,60.34-3.289,75.617-.078,1.4,2.1,1.4,2.179,0,.854-15.277,2.435-60.34,3.289-75.617C343.622,312.257,341.443,312.261,341.365,313.658Z" transform="translate(-188.326 -228.879)" fill="#e6e6e6"/>
      <path id="Path_2013" data-name="Path 2013" d="M403.875,393.255l-.267,14.684a1.09,1.09,0,0,0,2.179,0c.315-17.343,1.125-16.777,1.214-21.672a1.09,1.09,0,0,0-2.179,0S404.191,375.912,403.875,393.255Z" transform="translate(-206.252 -248.189)" fill="#e6e6e6"/>
      <path id="Path_2014" data-name="Path 2014" d="M464.088,343.545l.246,41.2.071,11.8a1.09,1.09,0,0,0,2.179,0l-.246-41.2-.071-11.8a1.09,1.09,0,0,0-2.179,0Z" transform="translate(-222.796 -237.054)" fill="#e6e6e6"/>
      <path id="Path_2015" data-name="Path 2015" d="M153.083,391.187c-1.8-4.957,2.263-9.725,6.441-11.868,5.006-2.567,10.765-3.148,15.824-5.623,7.542-3.689,13.036-10.31,17.924-16.937,5.031-6.821,9.635-14.141,16.028-19.809a32.1,32.1,0,0,1,11.673-6.755,40.229,40.229,0,0,1,16.862-1.132c11.637,1.416,22.424,6.223,33.652,9.277,10.586,2.88,22.25,4.5,32.64.021,5.279-2.275,9.6-6.092,14.233-9.394a47.434,47.434,0,0,1,14.826-7.152,44.088,44.088,0,0,1,31.532,2.777,42.311,42.311,0,0,1,19.956,21.062c4.6,11,4,23.287,2.5,34.863-.389,2.992-.851,5.974-1.319,8.955-.215,1.372,1.884,1.963,2.1.579,1.873-11.936,3.74-24.251,1.41-36.262a43.919,43.919,0,0,0-16.223-26.426,45.073,45.073,0,0,0-29.72-9.38,48.729,48.729,0,0,0-16.327,3.631c-5.39,2.229-9.954,5.534-14.59,9.011-4.767,3.575-9.68,6.532-15.6,7.7a46.471,46.471,0,0,1-17.426-.361c-11.792-2.2-22.784-7.254-34.476-9.842-10.833-2.4-22.522-2.637-32.222,3.483-7.462,4.707-12.734,12.016-17.794,19.072-5.016,6.995-10.095,14.475-17.429,19.253-4.474,2.915-9.5,3.99-14.508,5.63s-9.835,4.416-11.881,9.557a9.294,9.294,0,0,0-.19,6.65c.476,1.308,2.583.743,2.1-.579Z" transform="translate(-137.005 -230.336)" fill="#e6e6e6"/>
      <path id="Path_2016" data-name="Path 2016" d="M86.17,166.9h0Z" transform="translate(-23.574 -45.655)" fill="#e6e6e6"/>
      <path id="Path_2017" data-name="Path 2017" d="M220.247,360.669A4.331,4.331,0,0,0,215,358.727a3.811,3.811,0,0,0-2.171,2.022c-.042.1-.066.2-.1.3-.047.076-.1.145-.146.225a4.328,4.328,0,0,0,6.749,5.171A4.661,4.661,0,0,0,220.247,360.669Zm-2.729,1.851C217.527,362.575,217.524,362.625,217.518,362.52Zm-.277-.631Zm-1.223.492C216,362.355,216,362.351,216.018,362.38Zm.29.246C216.377,362.65,216.349,362.645,216.308,362.626Zm.129.062.029-.013a.036.036,0,0,1-.02,0h0l.023,0,0,0-.013,0c.011,0,.013,0,.013,0,.13-.059.042-.031-.033-.008h-.005a.5.5,0,0,0-.149-.048l-.015-.008c-.042-.03-.253-.194-.057-.022-.043-.038-.085-.075-.125-.115a.569.569,0,0,1-.064-.078q-.038-.066-.075-.133l0-.024c0-.02-.006-.028-.008-.041s0-.026.005-.039a.471.471,0,0,0,.028-.122l.008-.011c.031-.044.059-.095.089-.14-.158.24.062-.026.078-.06,0-.006,0,0,0-.007l.012-.006c.049-.029.1-.061.145-.088s.292-.1.051-.03c.055-.016.108-.035.163-.05.01,0,.091-.014.135-.022l.08,0,.054,0c-.04.005.138.044.191.052l.022.017c.045.033.1.062.146.092-.211-.136,0,.011.043.051.024.024.046.05.069.075a.587.587,0,0,1,.056.077c.035.063.071.127.108.19l.01.016a.059.059,0,0,0,0,.006,1.721,1.721,0,0,0,.083.3.24.24,0,0,1,0,.025c0,.055.008.111.008.166v.011a1.194,1.194,0,0,0-1.089-.008Z" transform="translate(-153.873 -241.424)" fill="#e6e6e6"/>
      <path id="Path_2018" data-name="Path 2018" d="M218.115,364.255s0,0,0,0Z" transform="translate(-155.512 -243.007)" fill="#e6e6e6"/>
      <path id="Path_2019" data-name="Path 2019" d="M218.113,364.255h0Z" transform="translate(-155.511 -243.007)" fill="#e6e6e6"/>
      <path id="Path_2020" data-name="Path 2020" d="M218.113,364.257h0Z" transform="translate(-155.51 -243.007)" fill="#e6e6e6"/>
      <path id="Path_2021" data-name="Path 2021" d="M86.177,166.9Z" transform="translate(-23.577 -45.654)" fill="#e6e6e6"/>
      <path id="Path_2022" data-name="Path 2022" d="M150.17,138.9h0Z" transform="translate(-41.081 -37.996)" fill="#e6e6e6"/>
      <path id="Path_2023" data-name="Path 2023" d="M284.247,332.669A4.331,4.331,0,0,0,279,330.727a3.812,3.812,0,0,0-2.172,2.022c-.042.1-.066.2-.1.3-.047.076-.1.145-.146.225a4.328,4.328,0,0,0,6.749,5.171A4.661,4.661,0,0,0,284.247,332.669Zm-2.729,1.851C281.527,334.575,281.524,334.625,281.518,334.52Zm-.277-.631Zm-1.223.492C280,334.355,280,334.351,280.018,334.38Zm.29.246C280.377,334.65,280.349,334.645,280.308,334.626Zm.129.062.029-.013a.036.036,0,0,1-.02,0h0l.022,0,0,0-.013,0c.011,0,.013,0,.013,0,.13-.059.042-.031-.033-.008h-.005a.491.491,0,0,0-.149-.048l-.015-.008c-.042-.03-.253-.194-.057-.022-.043-.038-.085-.075-.125-.115a.576.576,0,0,1-.064-.079q-.039-.066-.075-.133l0-.024c0-.02-.006-.028-.008-.041s0-.026.005-.039a.471.471,0,0,0,.028-.122l.008-.011c.031-.044.059-.095.089-.14-.158.24.062-.026.078-.06,0-.006,0,0,0-.007l.012-.006c.049-.029.1-.061.145-.089s.292-.1.051-.03c.055-.016.108-.035.163-.05l.135-.022.08,0,.054,0c-.04.005.138.044.191.052l.022.017c.045.033.1.062.146.092-.211-.136,0,.011.043.051.024.024.046.05.069.075a.583.583,0,0,1,.056.077c.035.063.071.127.108.19l.01.016a.041.041,0,0,0,0,.006,1.721,1.721,0,0,0,.083.3c0,.008,0,.016,0,.025,0,.055.008.11.008.166v.011a1.193,1.193,0,0,0-1.089-.008Z" transform="translate(-171.38 -233.764)" fill="#e6e6e6"/>
      <path id="Path_2024" data-name="Path 2024" d="M282.113,336.257h0Z" transform="translate(-173.017 -235.348)" fill="#e6e6e6"/>
      <path id="Path_2025" data-name="Path 2025" d="M150.177,138.9Z" transform="translate(-41.083 -37.995)" fill="#e6e6e6"/>
      <path id="Path_2026" data-name="Path 2026" d="M282.115,336.255s0,0,0,0Z" transform="translate(-173.019 -235.348)" fill="#e6e6e6"/>
      <path id="Path_2027" data-name="Path 2027" d="M282.113,336.255h0Z" transform="translate(-173.018 -235.348)" fill="#e6e6e6"/>
      <path id="Path_2028" data-name="Path 2028" d="M212.177,152.9Z" transform="translate(-58.043 -41.825)" fill="#e6e6e6"/>
      <path id="Path_2029" data-name="Path 2029" d="M346.247,304.669A4.331,4.331,0,0,0,341,302.727a3.812,3.812,0,0,0-2.171,2.022c-.042.1-.066.2-.1.3-.047.076-.1.145-.146.225a4.328,4.328,0,0,0,6.749,5.171A4.661,4.661,0,0,0,346.247,304.669Zm-2.729,1.851C343.527,306.575,343.524,306.625,343.518,306.52Zm-.277-.631Zm-1.223.492C342,306.355,342,306.351,342.018,306.38Zm.29.246C342.377,306.65,342.349,306.645,342.308,306.626Zm.129.062.029-.013a.037.037,0,0,1-.02,0h0l.022,0,0,0-.013,0c.011,0,.013,0,.013,0,.13-.059.042-.031-.033-.007h-.005a.493.493,0,0,0-.149-.048l-.015-.008c-.042-.03-.253-.194-.057-.022-.043-.038-.085-.075-.125-.115a.568.568,0,0,1-.064-.079q-.039-.066-.075-.133l0-.024c0-.02-.006-.028-.008-.04s0-.026.005-.039a.468.468,0,0,0,.028-.122l.008-.011c.031-.044.059-.095.089-.14-.158.24.062-.026.078-.06,0-.006,0,0,0-.007l.012-.006c.049-.029.1-.061.145-.089s.292-.1.051-.03c.055-.016.108-.036.163-.05l.135-.022.08,0,.054,0c-.04.005.138.044.19.052l.022.017c.045.033.1.062.146.092-.211-.136,0,.011.043.051.024.024.046.05.069.075a.594.594,0,0,1,.056.077c.035.063.071.127.108.19l.01.016a.041.041,0,0,0,0,.006,1.715,1.715,0,0,0,.083.3.226.226,0,0,1,0,.025c0,.055.008.111.008.166v.011a1.193,1.193,0,0,0-1.089-.008Z" transform="translate(-188.339 -226.105)" fill="#e6e6e6"/>
      <path id="Path_2030" data-name="Path 2030" d="M212.17,152.9h0Z" transform="translate(-58.04 -41.826)" fill="#e6e6e6"/>
      <path id="Path_2031" data-name="Path 2031" d="M344.113,350.255h0Z" transform="translate(-189.978 -239.177)" fill="#e6e6e6"/>
      <path id="Path_2032" data-name="Path 2032" d="M344.113,350.257h0Z" transform="translate(-189.977 -239.178)" fill="#e6e6e6"/>
      <path id="Path_2033" data-name="Path 2033" d="M344.115,350.255s0,0,0,0Z" transform="translate(-189.978 -239.177)" fill="#e6e6e6"/>
      <path id="Path_2034" data-name="Path 2034" d="M409.247,381.669A4.331,4.331,0,0,0,404,379.727a3.811,3.811,0,0,0-2.171,2.022c-.042.1-.066.2-.1.3-.047.076-.1.145-.146.225a4.328,4.328,0,0,0,6.749,5.171A4.661,4.661,0,0,0,409.247,381.669Zm-2.729,1.851C406.527,383.575,406.524,383.625,406.518,383.52Zm-.277-.631Zm-1.223.492C405,383.355,405,383.351,405.018,383.38Zm.29.246C405.376,383.65,405.349,383.645,405.307,383.626Zm.129.062.029-.013a.036.036,0,0,1-.02,0h0l.022,0,0,0-.013,0c.011,0,.013,0,.013,0,.13-.059.042-.031-.033-.008h-.005a.5.5,0,0,0-.149-.048l-.015-.008c-.042-.03-.253-.194-.057-.022-.043-.038-.085-.075-.125-.115a.568.568,0,0,1-.064-.079q-.039-.066-.075-.133l0-.024c0-.02-.006-.028-.008-.04s0-.026.005-.039a.469.469,0,0,0,.028-.122l.008-.011c.031-.044.059-.095.089-.14-.158.24.062-.026.078-.06,0-.006,0,0,0-.007l.012-.006c.049-.029.1-.061.145-.089s.292-.1.05-.03c.055-.016.108-.035.163-.05l.135-.022.08,0,.054,0c-.04.005.138.044.19.052l.022.017c.045.033.1.062.146.092-.211-.136,0,.011.043.051.024.024.046.05.069.075a.578.578,0,0,1,.056.077c.035.063.071.127.108.19l.01.016a.045.045,0,0,0,0,.006,1.736,1.736,0,0,0,.083.3c0,.008,0,.016,0,.025,0,.055.008.111.008.166v.011a1.194,1.194,0,0,0-1.089-.008Z" transform="translate(-205.572 -247.168)" fill="#e6e6e6"/>
      <path id="Path_2035" data-name="Path 2035" d="M275.17,121.9h0Z" transform="translate(-75.274 -33.346)" fill="#e6e6e6"/>
      <path id="Path_2036" data-name="Path 2036" d="M407.113,319.255h0Z" transform="translate(-207.211 -230.697)" fill="#e6e6e6"/>
      <path id="Path_2037" data-name="Path 2037" d="M407.113,319.257h0Z" transform="translate(-207.21 -230.698)" fill="#e6e6e6"/>
      <path id="Path_2038" data-name="Path 2038" d="M407.115,319.255s0,0,0,0Z" transform="translate(-207.211 -230.697)" fill="#e6e6e6"/>
      <path id="Path_2039" data-name="Path 2039" d="M275.177,121.9Z" transform="translate(-75.276 -33.345)" fill="#e6e6e6"/>
      <path id="Path_2040" data-name="Path 2040" d="M466.113,339.255h0Z" transform="translate(-223.35 -236.168)" fill="#e6e6e6"/>
      <path id="Path_2041" data-name="Path 2041" d="M468.247,335.669A4.331,4.331,0,0,0,463,333.727a3.811,3.811,0,0,0-2.172,2.022c-.042.1-.066.2-.1.3-.047.076-.1.145-.146.225a4.328,4.328,0,0,0,6.749,5.171,4.661,4.661,0,0,0,.916-5.78Zm-2.73,1.851C465.527,337.575,465.524,337.625,465.518,337.52Zm-.277-.631Zm-1.223.492C464,337.355,464,337.351,464.018,337.38Zm.29.246C464.376,337.65,464.349,337.645,464.307,337.626Zm.129.062.029-.013a.036.036,0,0,1-.02,0h0l.022,0,0,0-.013,0c.011,0,.013,0,.013,0,.13-.059.042-.031-.033-.008h-.005a.5.5,0,0,0-.149-.048l-.014-.008c-.042-.03-.253-.194-.057-.022-.043-.038-.085-.075-.125-.115a.572.572,0,0,1-.064-.079q-.039-.066-.075-.133l0-.024c0-.02-.006-.028-.008-.04s0-.026.005-.039a.469.469,0,0,0,.028-.122l.008-.011c.031-.044.059-.095.089-.14-.158.24.062-.026.078-.06,0-.006,0,0,0-.007l.012-.006c.049-.029.1-.061.145-.089s.292-.1.051-.03c.055-.016.108-.036.163-.05.01,0,.091-.014.135-.022l.08,0,.054,0c-.04.005.138.044.191.052l.022.017c.045.033.1.062.146.092-.211-.136,0,.011.043.051.024.024.046.05.069.075a.592.592,0,0,1,.056.077c.035.063.071.127.108.19l.01.016s0,0,0,.006a1.725,1.725,0,0,0,.083.3.24.24,0,0,1,0,.025c0,.055.008.111.008.166v.011a1.193,1.193,0,0,0-1.089-.008Z" transform="translate(-221.711 -234.585)" fill="#e6e6e6"/>
      <path id="Path_2042" data-name="Path 2042" d="M334.17,141.9h0Z" transform="translate(-91.413 -38.817)" fill="#e6e6e6"/>
      <path id="Path_2043" data-name="Path 2043" d="M334.177,141.9Z" transform="translate(-91.415 -38.816)" fill="#e6e6e6"/>
      <path id="Path_2044" data-name="Path 2044" d="M466.115,339.255s0,0,0,0Z" transform="translate(-223.35 -236.168)" fill="#e6e6e6"/>
      <path id="Path_2045" data-name="Path 2045" d="M466.113,339.257h0Z" transform="translate(-223.349 -236.169)" fill="#e6e6e6"/>
      <path id="Path_2046" data-name="Path 2046" d="M436.923,383.12,403.145,385a.745.745,0,0,1-.161-1.479l34.525-5.618Z" transform="translate(-205.911 -246.739)" fill="#3f3d56"/>
      <path id="Path_2047" data-name="Path 2047" d="M507.359,480.537l12.729-21.415,9.408,4.443s-16.211,20.248-16.728,20.83a4.981,4.981,0,1,1-5.409-3.859Z" transform="translate(-233.42 -268.957)" fill="#ffb6b6"/>
      <path id="Path_2048" data-name="Path 2048" d="M515.442,420.126l20.622,10.759A11.417,11.417,0,0,1,538,447.651L523.78,463.959l-6.193-8.393,4.774-9.981-9.243-2.437Z" transform="translate(-236.208 -258.29)" fill="#6c63ff"/>
      <path id="Path_2049" data-name="Path 2049" d="M430.627,382.1,428.3,406.9l-10.4.017s5.969-25.241,6.186-25.989a4.981,4.981,0,1,1,6.541,1.168Z" transform="translate(-210.162 -245.365)" fill="#ffb6b6"/>
      <path id="Path_2050" data-name="Path 2050" d="M450.085,440.5l-23.947-4.392c-10.084-1.213-14.223-7.848-12.4-14.32l5.856-20.828,9.193,4.928-.035,11.064,12.868-1.759Z" transform="translate(-208.908 -253.048)" fill="#6c63ff"/>
      <path id="Path_2051" data-name="Path 2051" d="M314.842,484.428h-6.585l-3.132-25.4h9.719Z" transform="translate(-83.468 -125.564)" fill="#ffb6b6"/>
      <path id="Path_2052" data-name="Path 2052" d="M443.13,696.679H422.882v-.256a7.882,7.882,0,0,1,7.881-7.881h0l3.7-2.806,6.9,2.806h1.768Z" transform="translate(-211.524 -330.945)" fill="#2f2e41"/>
      <path id="Path_2053" data-name="Path 2053" d="M382.635,484.428h6.585l3.133-25.4h-9.719Z" transform="translate(-104.67 -125.564)" fill="#ffb6b6"/>
      <path id="Path_2054" data-name="Path 2054" d="M514.251,696.679H534.5v-.256a7.882,7.882,0,0,0-7.881-7.881h0l-3.7-2.806-6.9,2.806H514.25Z" transform="translate(-236.518 -330.945)" fill="#2f2e41"/>
      <path id="Path_2055" data-name="Path 2055" d="M436.656,599.3c.1-1.449.87-9.464.87-9.464l1.852-17,3.264-45.056,2.91-11.843,14.4,5.611,11.687-5.6,13.89,4.44,10.816,4.056s.018,1.736.1,3.834c.111,2.746.306,6.112.769,6.987.773,1.547.579,9.848.579,9.848s.769,16.891,1.736,18.743a12.865,12.865,0,0,1,.87,6.482c-.292.773.968,21.058.968,21.058s3.232,35.9,1.2,41.309-9.692,1.867-9.692,1.867.37-1.445-1.852-2.125-8.992-51.58-8.992-51.58-1.259-10.436-2.417-13.427-2.222-11.395-2.222-11.395-7.149-13.909-7.242-17c0,0-.935-2.894-1.82.292s-3.491,10.816-3.491,10.816l-2.542,9.371-2.991,14-1.935,11.788s-2.9,15.645-3.362,16.321,0,14.969,0,14.969-2.241,12.173-5.408,14.3-11.558.034-11.558.034S436.559,600.75,436.656,599.3Z" transform="translate(-215.289 -284.499)" fill="#2f2e41"/>
      <path id="Path_2058" data-name="Path 2058" d="M924.562,571.1c0-2.167-.728-3.926-1.621-3.93H679.328c-.9,0-1.622,1.763-1.625,3.93v89.216a.81.81,0,0,1-.731.806q-.981.094-1.961.175c-.016,0-.032,0-.049,0-.356.032-.712.057-1.068.085h0q-.275-.508-.543-1.024a.813.813,0,0,1-.092-.376V566c0-.6.024-1.2.065-1.8a23.011,23.011,0,0,1,.3-2.434c.683-3.756,2.228-6.3,3.983-6.308H924.66a1.893,1.893,0,0,1,.744.158,2.9,2.9,0,0,1,.918.643,5.686,5.686,0,0,1,.9,1.233,16.231,16.231,0,0,1,1.7,6.441c0,.024,0,.049,0,.073.057.655.085,1.322.081,1.989l.057,8.665.036,5.167.109,16.214.04,5.758.178,59.115h0a.809.809,0,0,1-.809.809h-3.251a.809.809,0,0,1-.809-.809Z" transform="translate(-280.012 -295.311)" fill="#e6e6e6"/>
      <path id="Path_2059" data-name="Path 2059" d="M917.657,499.652h-26.25a1.4,1.4,0,0,0-1.4,1.4v41.467h29.05V501.054a1.4,1.4,0,0,0-1.4-1.4ZM904.62,523.213a3.114,3.114,0,0,1-3.1-3.1v-4.783a3.1,3.1,0,1,1,6.2,0v4.783A3.114,3.114,0,0,1,904.62,523.213Z" transform="translate(-339.304 -280.044)" fill="#ccc"/>
      <path id="Path_2060" data-name="Path 2060" d="M889.884,556.837v4a.784.784,0,0,0,.782.782h27.666a.786.786,0,0,0,.782-.782v-4Z" transform="translate(-339.269 -295.686)" fill="#3f3d56"/>
      <path id="Path_2061" data-name="Path 2061" d="M944.281,410.571H832.073a3.642,3.642,0,0,0-3.637,3.637v75.718a3.64,3.64,0,0,0,3.637,3.637H944.281a3.64,3.64,0,0,0,3.637-3.637V414.208a3.642,3.642,0,0,0-3.637-3.637Z" transform="translate(-322.461 -255.676)" fill="#e6e6e6"/>
      <path id="Path_2062" data-name="Path 2062" d="M944.335,414.186H834a1.949,1.949,0,0,0-1.945,1.949v73.842A1.948,1.948,0,0,0,834,491.921H944.335a1.948,1.948,0,0,0,1.945-1.945V416.135a1.949,1.949,0,0,0-1.945-1.949Z" transform="translate(-323.451 -256.665)" fill="#fff"/>
      <path id="Path_2063" data-name="Path 2063" d="M931.857,562.606H866.215a1.207,1.207,0,0,1-1.182-1.456l1.019-4.837a1.212,1.212,0,0,1,1.181-.959h63.606a1.213,1.213,0,0,1,1.181.959l1.019,4.837a1.207,1.207,0,0,1-1.182,1.456Z" transform="translate(-332.465 -295.28)" fill="#ccc"/>
      <rect id="Rectangle_1209" data-name="Rectangle 1209" width="2.022" height="1.213" rx="0.488" transform="translate(535.235 260.945)" fill="#e6e6e6"/>
      <rect id="Rectangle_1210" data-name="Rectangle 1210" width="2.022" height="1.213" rx="0.488" transform="translate(539.278 260.945)" fill="#e6e6e6"/>
      <rect id="Rectangle_1211" data-name="Rectangle 1211" width="2.022" height="1.213" rx="0.488" transform="translate(543.322 260.945)" fill="#e6e6e6"/>
      <rect id="Rectangle_1212" data-name="Rectangle 1212" width="2.022" height="1.213" rx="0.488" transform="translate(547.365 260.945)" fill="#e6e6e6"/>
      <rect id="Rectangle_1213" data-name="Rectangle 1213" width="2.022" height="1.213" rx="0.488" transform="translate(551.409 260.945)" fill="#e6e6e6"/>
      <rect id="Rectangle_1214" data-name="Rectangle 1214" width="2.022" height="1.213" rx="0.488" transform="translate(555.452 260.945)" fill="#e6e6e6"/>
      <rect id="Rectangle_1215" data-name="Rectangle 1215" width="2.022" height="1.213" rx="0.488" transform="translate(559.496 260.945)" fill="#e6e6e6"/>
      <rect id="Rectangle_1216" data-name="Rectangle 1216" width="2.022" height="1.213" rx="0.488" transform="translate(563.539 260.945)" fill="#e6e6e6"/>
      <rect id="Rectangle_1217" data-name="Rectangle 1217" width="2.022" height="1.213" rx="0.488" transform="translate(567.583 260.945)" fill="#e6e6e6"/>
      <rect id="Rectangle_1218" data-name="Rectangle 1218" width="2.022" height="1.213" rx="0.488" transform="translate(571.626 260.945)" fill="#e6e6e6"/>
      <rect id="Rectangle_1219" data-name="Rectangle 1219" width="2.022" height="1.213" rx="0.488" transform="translate(575.669 260.945)" fill="#e6e6e6"/>
      <rect id="Rectangle_1220" data-name="Rectangle 1220" width="2.022" height="1.213" rx="0.488" transform="translate(579.713 260.945)" fill="#e6e6e6"/>
      <rect id="Rectangle_1221" data-name="Rectangle 1221" width="2.022" height="1.213" rx="0.488" transform="translate(583.756 260.945)" fill="#e6e6e6"/>
      <rect id="Rectangle_1222" data-name="Rectangle 1222" width="2.022" height="1.213" rx="0.488" transform="translate(587.8 260.945)" fill="#e6e6e6"/>
      <rect id="Rectangle_1223" data-name="Rectangle 1223" width="2.022" height="1.213" rx="0.488" transform="translate(591.843 260.945)" fill="#e6e6e6"/>
      <rect id="Rectangle_1224" data-name="Rectangle 1224" width="2.022" height="1.213" rx="0.488" transform="translate(595.887 260.945)" fill="#e6e6e6"/>
      <rect id="Rectangle_1225" data-name="Rectangle 1225" width="2.022" height="1.213" rx="0.488" transform="translate(535.187 262.966)" fill="#e6e6e6"/>
      <rect id="Rectangle_1226" data-name="Rectangle 1226" width="2.022" height="1.213" rx="0.488" transform="translate(539.23 262.966)" fill="#e6e6e6"/>
      <rect id="Rectangle_1227" data-name="Rectangle 1227" width="2.022" height="1.213" rx="0.488" transform="translate(543.274 262.966)" fill="#e6e6e6"/>
      <rect id="Rectangle_1228" data-name="Rectangle 1228" width="2.022" height="1.213" rx="0.488" transform="translate(547.317 262.966)" fill="#e6e6e6"/>
      <rect id="Rectangle_1229" data-name="Rectangle 1229" width="2.022" height="1.213" rx="0.488" transform="translate(551.361 262.966)" fill="#e6e6e6"/>
      <rect id="Rectangle_1230" data-name="Rectangle 1230" width="2.022" height="1.213" rx="0.488" transform="translate(555.404 262.966)" fill="#e6e6e6"/>
      <rect id="Rectangle_1231" data-name="Rectangle 1231" width="2.022" height="1.213" rx="0.488" transform="translate(559.448 262.966)" fill="#e6e6e6"/>
      <rect id="Rectangle_1232" data-name="Rectangle 1232" width="2.022" height="1.213" rx="0.488" transform="translate(563.491 262.966)" fill="#e6e6e6"/>
      <rect id="Rectangle_1233" data-name="Rectangle 1233" width="2.022" height="1.213" rx="0.488" transform="translate(567.535 262.966)" fill="#e6e6e6"/>
      <rect id="Rectangle_1234" data-name="Rectangle 1234" width="2.022" height="1.213" rx="0.488" transform="translate(571.578 262.966)" fill="#e6e6e6"/>
      <rect id="Rectangle_1235" data-name="Rectangle 1235" width="2.022" height="1.213" rx="0.488" transform="translate(575.622 262.966)" fill="#e6e6e6"/>
      <rect id="Rectangle_1236" data-name="Rectangle 1236" width="2.022" height="1.213" rx="0.488" transform="translate(579.665 262.966)" fill="#e6e6e6"/>
      <rect id="Rectangle_1237" data-name="Rectangle 1237" width="2.022" height="1.213" rx="0.488" transform="translate(583.708 262.966)" fill="#e6e6e6"/>
      <rect id="Rectangle_1238" data-name="Rectangle 1238" width="2.022" height="1.213" rx="0.488" transform="translate(587.752 262.966)" fill="#e6e6e6"/>
      <rect id="Rectangle_1239" data-name="Rectangle 1239" width="2.022" height="1.213" rx="0.488" transform="translate(591.795 262.966)" fill="#e6e6e6"/>
      <rect id="Rectangle_1240" data-name="Rectangle 1240" width="2.022" height="1.213" rx="0.488" transform="translate(595.839 262.966)" fill="#e6e6e6"/>
      <rect id="Rectangle_1241" data-name="Rectangle 1241" width="16.174" height="1.213" rx="0.488" transform="translate(554.596 265.393)" fill="#e6e6e6"/>
      <path id="Path_2064" data-name="Path 2064" d="M939.95,427.882H836.711a.411.411,0,1,1,0-.821H939.95a.411.411,0,1,1,0,.821Z" transform="translate(-324.612 -260.187)" fill="#cacaca"/>
      <ellipse id="Ellipse_595" data-name="Ellipse 595" cx="2.406" cy="2.46" rx="2.406" ry="2.46" transform="translate(516.72 159.858)" fill="#ccc"/>
      <ellipse id="Ellipse_596" data-name="Ellipse 596" cx="2.406" cy="2.46" rx="2.406" ry="2.46" transform="translate(525.032 159.858)" fill="#ccc"/>
      <ellipse id="Ellipse_597" data-name="Ellipse 597" cx="2.406" cy="2.46" rx="2.406" ry="2.46" transform="translate(533.344 159.858)" fill="#ccc"/>
      <path id="Path_2065" data-name="Path 2065" d="M969.7,418.243h-5.9a.447.447,0,1,0,0,.894h5.9a.447.447,0,1,0,0-.894Z" transform="translate(-359.365 -257.775)" fill="#ccc"/>
      <path id="Path_2066" data-name="Path 2066" d="M969.7,420.553h-5.9a.447.447,0,1,0,0,.894h5.9a.447.447,0,1,0,0-.894Z" transform="translate(-359.365 -258.407)" fill="#ccc"/>
      <path id="Path_2067" data-name="Path 2067" d="M969.7,422.86h-5.9a.447.447,0,1,0,0,.894h5.9a.447.447,0,1,0,0-.894Z" transform="translate(-359.365 -259.038)" fill="#ccc"/>
      <rect id="Rectangle_1242" data-name="Rectangle 1242" width="16.409" height="3.509" rx="1.754" transform="translate(557.399 190.063)" fill="#6c63ff"/>
      <rect id="Rectangle_1243" data-name="Rectangle 1243" width="33.076" height="3.509" rx="1.754" transform="translate(549.065 197.08)" fill="#e6e6e6"/>
      <rect id="Rectangle_1244" data-name="Rectangle 1244" width="33.076" height="3.509" rx="1.754" transform="translate(549.065 204.098)" fill="#e6e6e6"/>
      <path id="Path_2068" data-name="Path 2068" d="M522.487,421.016l-5.947-2.845,8.169-24.857,8.777,4.2Z" transform="translate(-141.299 -107.588)" fill="#ffb6b6"/>
      <path id="Path_2069" data-name="Path 2069" d="M705.809,614.447c-.432.271-.865.537-1.3.8-.869.533-1.747,1.057-2.625,1.572-.441.258-.887.516-1.328.769v.013l-.026,0-.009,0-.673.166-.965-2.551-.445-1.175-.629-1.664-1.153-3.045-6.072-16.031,9.44-2.328.354,1.446h0l.175.716,3.3,13.376.673,2.734.022.083.406,1.634.349,1.415.389,1.581Z" transform="translate(-284.752 -305.027)" fill="#ffb6b6"/>
      <path id="Path_2070" data-name="Path 2070" d="M759.477,534.987c-.6.961-1.21,1.918-1.826,2.866q-1.717,2.647-3.525,5.216s0,0-.009.009a12.334,12.334,0,0,1-2.315,1.691c-.035.026-.074.044-.109.066a8.536,8.536,0,0,1-1.948.782l-.738.183c-.882.21-1.756.389-2.625.546q-2.319.413-4.6.594c-.122.013-.245.022-.367.031a71.071,71.071,0,0,1-18.687-1.49c-3.136-.594-6.338-1.306-9.654-2.044-1.083-.245-2.171-.485-3.272-.725-.083-.017-.17-.039-.258-.057-1.573-.345-3.171-.686-4.81-1.022-2.062-.424-4.189-.834-6.4-1.223l.157,3.115a23.44,23.44,0,0,0,1.476,7c.944,2.761,1.691,4.945.114,9.492l-.761,2.2a7.519,7.519,0,0,1-.773,6.653l-.153.232,6.338,16.036.411,1.04H701.9l-3.993,0h-6.766L681.381,566.6l-.467-.935v-.048l1.009-37.641c.013-.332.039-.668.083-1a11.444,11.444,0,0,1,4.355-7.706,11.021,11.021,0,0,1,8.208-2.245l3.342.432,6.828.882,4.809.625.1.013,14.184,1.835,1.018-4.15.188-.07L731,514.4l20.653-7.57.052-.017,1.359-.5.162.262c.048.079.1.157.14.236a40.484,40.484,0,0,1,3.263,7.575,118.906,118.906,0,0,1,3.429,13.091q.059.288.1.524l.013.048c.013.074.022.122.026.135A12.216,12.216,0,0,1,759.477,534.987Z" transform="translate(-282.107 -281.866)" fill="#2f2e41"/>
      <path id="Path_2071" data-name="Path 2071" d="M753.275,518.9c-.066-.28-.148-.564-.236-.839a59.727,59.727,0,0,0-2.42-6.124c-1.031-2.271-2.267-4.7-3.739-7.339q-1.068-1.913-2.3-3.979-.616-1.035-1.28-2.11-.026-.049-.057-.1l-.127-.21-20.435,2.735-7.609,1.018-.454,3.792-.109.939s0,0,0,0l-.306,2.56v0l-.406,3.381-.035,0-11.292-1.463-11.637-1.507-6.251-.808a11.014,11.014,0,0,0-8.208,2.245,11.45,11.45,0,0,0-4.355,7.706c-.039.306-.065.62-.079.93l-5.9,13.974a90.16,90.16,0,0,0-6.666,26.227l-4.325,13.826.616.057,9.165.852,2.42.227,5.329-7.78c.607-.887,1.184-1.8,1.721-2.735a41.507,41.507,0,0,0,2.355-4.735l11.528-27.433q1.337.229,2.647.437,6.061.983,11.637,1.6c12.087,1.35,22.553,1.455,31.871.31q3.925-.478,7.588-1.258,1.343-.282,2.651-.607c.205-.048.406-.1.607-.148a11.148,11.148,0,0,0,7.8-7.286,11.374,11.374,0,0,0,.288-6.365Z" transform="translate(-275.034 -279.646)" fill="#2f2e41"/>
      <path id="Path_2072" data-name="Path 2072" d="M650.839,621.867l-6.434-3.084L643.4,618.3l-1.612,3.958-11.253,2.477a2.67,2.67,0,0,0-.437,5.08l10.995,4.486,3.49-3.141-.856,4.215,4.141,1.691,4.538-14.446Z" transform="translate(-267.751 -312.499)" fill="#2f2e41"/>
      <path id="Path_2073" data-name="Path 2073" d="M581.774,417.469l.411,1.04h-.411Z" transform="translate(-159.144 -114.195)" fill="#2f2e41"/>
      <path id="Path_2074" data-name="Path 2074" d="M705.788,616.345l-6.742,2.336-1.058.365,1.639,3.946-6.253,9.678a2.67,2.67,0,0,0,3.264,3.917l10.969-4.548.27-4.688,2.358,3.6,4.132-1.713-6.939-13.458Z" transform="translate(-285.398 -311.809)" fill="#2f2e41"/>
      <path id="Path_2482" data-name="Path 2482" d="M.179,1.444,9.841.956V8.57l-11.91.586Z" transform="translate(249.915 148.164)" fill="#ffb6b6"/>
      <path id="Path_2075" data-name="Path 2075" d="M654.088,414.95a4.789,4.789,0,0,0,7.161,1.623l14.177,9.412.027-8.843-13.467-7.582a4.814,4.814,0,0,0-7.9,5.39Z" transform="translate(-274.62 -254.948)" fill="#ffb6b6"/>
      <path id="Path_2483" data-name="Path 2483" d="M0,.224,9.663-1.011l2.55,9.784H0Z" transform="translate(460.442 158.721)" fill="#ffb6b6"/>
      <path id="Path_2076" data-name="Path 2076" d="M668.874,420.393l6.615-7.525,26.933,15.989,35.7-3.27a12.073,12.073,0,0,1,13.122,13.135h0a12.086,12.086,0,0,1-13.134,10.909L697.9,445.91Z" transform="translate(-278.814 -256.305)" fill="#ccc"/>
      <path id="Path_2077" data-name="Path 2077" d="M770.14,423.31l-.062-.078h0a26.085,26.085,0,0,0-25.246,13.081l-3.03,5.337c-9.8,11.982-2.679,20.244-2.253,21.473l-3.4,15.685.762,5.249.381,1.559,38.832,20.291c2.211-10.622.073-19.674-7.981-26.589l7.793-24.248A34.158,34.158,0,0,0,770.14,423.31Z" transform="translate(-297.216 -259.105)" fill="#ccc"/>
      <path id="Path_2078" data-name="Path 2078" d="M734.47,576.783H722.015a2.846,2.846,0,0,1-2.815-2.446,63.33,63.33,0,0,1,0-17.057,2.846,2.846,0,0,1,2.768-2.446,15.583,15.583,0,0,1,12.547,0,2.813,2.813,0,0,1,2.14,1.032,2.877,2.877,0,0,1,.594,2.4,38.293,38.293,0,0,0,0,15.087,2.877,2.877,0,0,1-.594,2.4A2.812,2.812,0,0,1,734.47,576.783Z" transform="translate(-292.422 -294.778)" fill="#6c63ff"/>
      <path id="Path_2079" data-name="Path 2079" d="M734.448,563.788H723.964a.655.655,0,0,1,0-1.31h10.484a.655.655,0,0,1,0,1.31Z" transform="translate(-293.704 -297.229)" fill="#fff"/>
      <path id="Path_2080" data-name="Path 2080" d="M734.448,571H723.964a.655.655,0,1,1,0-1.31h10.484a.655.655,0,0,1,0,1.311Z" transform="translate(-293.704 -299.203)" fill="#fff"/>
      <path id="Path_2081" data-name="Path 2081" d="M734.448,578.221H723.964a.655.655,0,0,1,0-1.31h10.484a.655.655,0,0,1,0,1.31Z" transform="translate(-293.704 -301.177)" fill="#fff"/>
      <path id="Path_2082" data-name="Path 2082" d="M651.471,414.783H639.015a2.846,2.846,0,0,1-2.815-2.446,63.335,63.335,0,0,1,0-17.057,2.846,2.846,0,0,1,2.768-2.446,15.584,15.584,0,0,1,12.547,0,2.813,2.813,0,0,1,2.14,1.032,2.877,2.877,0,0,1,.594,2.4,38.29,38.29,0,0,0,0,15.087,2.877,2.877,0,0,1-.594,2.4A2.812,2.812,0,0,1,651.471,414.783Z" transform="translate(-269.718 -250.464)" fill="#6c63ff"/>
      <path id="Path_2083" data-name="Path 2083" d="M651.448,401.789H640.964a.655.655,0,0,1,0-1.311h10.484a.655.655,0,1,1,0,1.31Z" transform="translate(-271 -252.915)" fill="#fff"/>
      <path id="Path_2084" data-name="Path 2084" d="M651.448,409H640.964a.655.655,0,0,1,0-1.31h10.484a.655.655,0,1,1,0,1.31Z" transform="translate(-271 -254.889)" fill="#fff"/>
      <path id="Path_2085" data-name="Path 2085" d="M651.448,416.22H640.964a.655.655,0,0,1,0-1.31h10.484a.655.655,0,1,1,0,1.31Z" transform="translate(-271 -256.863)" fill="#fff"/>
      <g id="Group_301" data-name="Group 301" transform="translate(147.24 173.017)">
        <path id="Path_2086" data-name="Path 2086" d="M350.471,458.783H338.015a2.846,2.846,0,0,1-2.815-2.446,63.328,63.328,0,0,1,0-17.057,2.846,2.846,0,0,1,2.767-2.446,15.584,15.584,0,0,1,12.547,0,2.813,2.813,0,0,1,2.14,1.032,2.878,2.878,0,0,1,.594,2.4,38.291,38.291,0,0,0,0,15.087,2.877,2.877,0,0,1-.594,2.4A2.812,2.812,0,0,1,350.471,458.783Z" transform="translate(-334.622 -435.517)" fill="#6c63ff"/>
        <path id="Path_2087" data-name="Path 2087" d="M350.448,445.789H339.964a.655.655,0,1,1,0-1.31h10.484a.655.655,0,1,1,0,1.311Z" transform="translate(-335.904 -437.969)" fill="#fff"/>
        <path id="Path_2088" data-name="Path 2088" d="M350.448,453H339.964a.655.655,0,1,1,0-1.311h10.484a.655.655,0,1,1,0,1.31Z" transform="translate(-335.904 -439.942)" fill="#fff"/>
        <path id="Path_2089" data-name="Path 2089" d="M350.448,460.221H339.964a.655.655,0,1,1,0-1.31h10.484a.655.655,0,1,1,0,1.311Z" transform="translate(-335.904 -441.916)" fill="#fff"/>
      </g>
      <path id="Path_2090" data-name="Path 2090" d="M742.717,555.359a4.789,4.789,0,0,0,1.2-7.245l8.554-14.711-8.829.5-6.769,13.893a4.815,4.815,0,0,0,5.849,7.565Z" transform="translate(-297.019 -289.276)" fill="#ffb6b6"/>
      <path id="Path_2091" data-name="Path 2091" d="M747.237,517.364l-7.9-6.156L753.7,483.374l-5.382-35.445a12.073,12.073,0,0,1,12.333-13.878h0a12.086,12.086,0,0,1,11.669,12.464l-1.33,40.359Z" transform="translate(-298.087 -262.097)" fill="#ccc"/>
      <path id="Path_2484" data-name="Path 2484" d="M15.152,0A15.152,15.152,0,0,1,30.3,15.152c0,8.368-7.122,17.128-15.49,17.128S0,23.52,0,15.152A15.152,15.152,0,0,1,15.152,0Z" transform="translate(448.821 129.211)" fill="#ffb6b6"/>
      <path id="Path_2104" data-name="Path 2104" d="M812.474,410.321a13.14,13.14,0,0,1-7.223,5.085,15.108,15.108,0,0,1-3.6.611,13.592,13.592,0,0,0-1.069-3.995,11.221,11.221,0,0,1-.555,3.985,13.357,13.357,0,0,1-5.257-1.408,11.584,11.584,0,0,1-6.2-8.313c-.642-4.144,1.237-8.214,1.916-12.352s-.6-9.379-4.649-10.467c-3.085-.829-2.739-.47-5.3,1.433,2.668,3.944-7.185,18.4-11.217,17.138-2.28-.713-3.739-2.8-4.21-2.8-3.169,5.459,2.8,14.658-3.216,16.568l.5-.5c3.63-4.465-3.957-13.916-.327-18.381,1.013-1.249,2.091-2.73,1.792-4.309-.284-1.5-2.667-2.3-3.365-1.063a5.672,5.672,0,0,0-3.668-7.453c-2.727-.657-2.677.153-5.412.5a13.582,13.582,0,0,0-.994-3.431,11.132,11.132,0,0,1-.408,3.5,4.39,4.39,0,0,1-2.655-.96c-2.231-1.8-1.779-5.574.212-7.634s4.958-2.8,7.784-3.281c.822-5.721,16.607-6.318,18.7-.6.891-4.269,6.235-6.484,10.389-5.16s7.036,5.2,8.553,9.292,1.941,8.482,2.876,12.738,2.515,8.591,5.768,11.492,8.553,3.858,11.981,1.165a9.6,9.6,0,0,1-1.144,8.6Z" transform="translate(-299.875 -243.662)" fill="#2f2e41"/>
      <path id="Path_2105" data-name="Path 2105" d="M1022.473,472.4l-2.121,10.643c-.16.814-.327,1.642-.508,2.463a10.379,10.379,0,0,0-5.332.3,49.76,49.76,0,0,1,3.661,6.124c-1.337,4.119-3.3,7.926-6.582,10.679a16.505,16.505,0,0,1-15.946,2.8l.094-.421c-3.531-6.85-1.613-15.488,2.775-21.815a42.415,42.415,0,0,1,7.882-8.333c2.964-2.47,6.167-4.686,9.342-6.872a4.352,4.352,0,0,1,6.734,4.431Z" transform="translate(-367.724 -271.168)" fill="#e4e4e4"/>
      <path id="a4b268fa-75d0-4ac1-9d87-14bdca948464-2189-2" data-name="a4b268fa-75d0-4ac1-9d87-14bdca948464-2189" d="M996.815,539.139c-.893-6.5-1.811-13.091-1.185-19.664a30.926,30.926,0,0,1,5.964-16.215,26.974,26.974,0,0,1,6.921-6.271c.692-.436,1.329.66.64,1.095a25.644,25.644,0,0,0-10.143,12.239c-2.208,5.617-2.563,11.74-2.179,17.707.23,3.608.718,7.192,1.21,10.773a.654.654,0,0,1-.443.78.638.638,0,0,1-.78-.443Z" transform="translate(-368.139 -279.287)" fill="#f2f2f2"/>
      <path id="Path_2106" data-name="Path 2106" d="M811.134,701.69l-678.33.223a.865.865,0,1,1,0-1.73l678.33-.223a.865.865,0,0,1,0,1.73Z" transform="translate(-131.939 -334.836)" fill="#cacaca"/>
      <path id="Path_2056" data-name="Path 2056" d="M448.024,448.689l-1.84,23.841-2.765,2.862a2.667,2.667,0,0,0,.14,3.84h0l-1.523,2.612-.539,8.231a4.474,4.474,0,0,0,4.14,5.514l47.679,2.24a4.474,4.474,0,0,0,4.645-5.058l-4.054-30.521v-2.282l-1.815-4.407.933-14.765,2.17-23.435L482.58,414.1l-6.839-4.705-11.881.189-7.209,5.921-9.612,1.505-7.269,1.445-.926,2.012,1.852-.4,6.713,26.182Z" transform="translate(-215.891 -255.355)" fill="#6c63ff"/>
      <circle id="Ellipse_594" data-name="Ellipse 594" cx="13.996" cy="13.996" r="13.996" transform="translate(239.649 122.856)" fill="#ffb6b6"/>
      <path id="Path_2057" data-name="Path 2057" d="M470.433,392.426l10.112-.516a4.172,4.172,0,0,0,4.8-2.976c.935-2.171,1.87-4.343,2.781-6.525,1.26-3.018,2.5-6.2,2.176-9.458a6.019,6.019,0,0,0-1.75-3.945,3.341,3.341,0,0,0-4.061-.411,6.867,6.867,0,0,0-3.409-4.949,10.524,10.524,0,0,0-6-1.273,14.487,14.487,0,0,0-8.25,3.252,17.905,17.905,0,0,1-2.1,1.668,3.3,3.3,0,0,1-2.569.475,1.859,1.859,0,0,1-1.365-2.026,3.577,3.577,0,0,0-.915,4.722,3.3,3.3,0,0,1-3.226-.382,3.944,3.944,0,1,0,4.136,6.675c.614.86.385,2.028.305,3.081s.2,2.362,1.218,2.653c1.373.394,2.484-1.455,3.912-1.435a2.147,2.147,0,0,1,1.7,1.1,6.335,6.335,0,0,1,.682,1.99l1.827,8.226" transform="translate(-220.163 -242.481)" fill="#2f2e41"/>
    </g>
    <rect id="Rectangle_1260" data-name="Rectangle 1260" width="12" height="8" transform="translate(225 655)" fill="#a0616a"/>
    <g id="Group_302" data-name="Group 302" transform="translate(204.997 626.053)">
      <path id="Path_2251" data-name="Path 2251" d="M259.084,448.811a4.372,4.372,0,0,1-6.7.316l-14.246,6.2,1.388-7.953,13.316-4.664a4.4,4.4,0,0,1,6.239,6.106Z" transform="translate(-167.385 -383.552)" fill="#a0616a"/>
      <path id="Path_2252" data-name="Path 2252" d="M215.613,444.835l-33.089,14.739-.071-.025L144.74,446.109A12.422,12.422,0,0,1,139.169,430h0a12.408,12.408,0,0,1,17.708-5.516l28.065,16.906,27.215-3.527Z" transform="translate(-133.42 -377.092)" fill="#3f3d56"/>
      <path id="Path_2307" data-name="Path 2307" d="M26.275,522.422h5.786l2.752-22.314H26.274Z" transform="translate(-17.088 -285.652)" fill="#a0616a"/>
      <path id="Path_2308" data-name="Path 2308" d="M142.7,707.888h1.628l6.357-2.585,3.407,2.585h0a7.261,7.261,0,0,1,7.261,7.26v.236H142.7Z" transform="translate(-134.993 -473.008)" fill="#2f2e41"/>
      <path id="Path_2309" data-name="Path 2309" d="M60.214,517.185l5.643,1.274,7.6-21.16-8.329-1.881Z" transform="translate(-28.607 -284.061)" fill="#a0616a"/>
      <path id="Path_2310" data-name="Path 2310" d="M176.479,702.884l1.588.359,6.771-1.122,2.754,3.272h0a7.261,7.261,0,0,1,5.483,8.682l-.052.23-18.2-4.108Z" transform="translate(-145.895 -471.928)" fill="#2f2e41"/>
      <path id="Path_2311" data-name="Path 2311" d="M132.891,505.566c-2.712,8.181-2.426,17.061.652,26.591l1.316,53.659S132.9,621,139.223,633.387H148.4l4.542-50.785.57-34.087,19.667,28.758-12.526,55.283,11.29,1.009,20.326-60-25.079-58.206Z" transform="translate(-131.031 -405.217)" fill="#2f2e41"/>
      <path id="Path_2312" data-name="Path 2312" d="M168.828,484.068l-33.356-5.335a6.367,6.367,0,0,1-3.752-8.912l1.513-3.026-.588-31.788a23.548,23.548,0,0,1,11.433-20.6l3.253-1.945,1.644-4.175,15.158.37.044,5.475,5.428,8.656v.036l-.341,47.115-1.5,4.862,2.262,5.655Z" transform="translate(-131.037 -372.201)" fill="#3f3d56"/>
      <ellipse id="Ellipse_617" data-name="Ellipse 617" cx="13.773" cy="14.994" rx="13.773" ry="14.994" transform="translate(13.132 3.353)" fill="#a0616a"/>
      <path id="Path_2313" data-name="Path 2313" d="M149.926,373.786a18.22,18.22,0,0,1,.01-5.908,16.538,16.538,0,0,1,7-11.484,5.043,5.043,0,0,1,2.512-1,2.168,2.168,0,0,1,2.18,1.319,4.52,4.52,0,0,1,2.55-2.529,7.966,7.966,0,0,1,3.63-.489,13.265,13.265,0,0,1,11.066,7.91c.368.874,1.4-2.354,1.861-1.528a3.671,3.671,0,0,0,2.082,1.829c.913.255,1.284,4.018,1.644,3.14a4.183,4.183,0,0,1-4,5.832,23.02,23.02,0,0,1-2.737-.524,6.824,6.824,0,0,0-7.471,5.107,9.041,9.041,0,0,0-1.189-2.646,3.06,3.06,0,0,0-2.455-1.349,3.438,3.438,0,0,0-2.362,1.358c-.606.712-1.062,1.543-1.673,2.251-1.792,2.078-4.216,6.923-6.77,6.57C153.789,381.369,150.487,376.149,149.926,373.786Z" transform="translate(-137.363 -353.659)" fill="#2f2e41"/>
      <path id="Path_2314" data-name="Path 2314" d="M238.461,502.224a4.372,4.372,0,0,1-6-3l-15.456-1.562,5.1-6.259,13.9,2.442a4.4,4.4,0,0,1,2.456,8.377Z" transform="translate(-160.213 -400.41)" fill="#a0616a"/>
      <path id="Path_2315" data-name="Path 2315" d="M201.97,476.925,165.9,473.6l-.049-.057L139.525,443.38a12.422,12.422,0,0,1,3.02-16.78h0a12.408,12.408,0,0,1,18.144,3.848L176.9,458.919l25.464,10.231Z" transform="translate(-133.228 -377.594)" fill="#3f3d56"/>
    </g>
  </g>
</svg>
